<svg width="21" height="19" viewBox="0 0 21 19" fill="none" xmlns="http://www.w3.org/2000/svg">
<path d="M0.503923 8.68044C0.0156185 9.16874 0.0156185 9.96175 0.503923 10.4501L5.50417 15.4503C5.99247 15.9386 6.78548 15.9386 7.27379 15.4503C7.76209 14.962 7.76209 14.169 7.27379 13.6807L4.40646 10.8134L12.6373 10.8134C13.3288 10.8134 13.8874 10.2547 13.8874 9.56329C13.8874 8.87185 13.3288 8.31323 12.6373 8.31323L4.40646 8.31323L7.27379 5.44591C7.76209 4.9576 7.76209 4.16459 7.27379 3.67629C6.78548 3.18798 5.99247 3.18798 5.50417 3.67629L0.503923 8.67653L0.503923 8.68044ZM13.8874 15.8136C13.1959 15.8136 12.6373 16.3722 12.6373 17.0637C12.6373 17.7551 13.196 18.3137 13.8874 18.3137L16.3875 18.3137C18.4579 18.3137 20.1377 16.634 20.1377 14.5635L20.1377 4.56305C20.1377 2.49264 18.4579 0.812866 16.3875 0.812867L13.8874 0.812867C13.1959 0.812867 12.6373 1.37149 12.6373 2.06293C12.6373 2.75437 13.1959 3.31299 13.8874 3.31299L16.3875 3.31299C17.079 3.31299 17.6376 3.87161 17.6376 4.56305L17.6376 14.5635C17.6376 15.255 17.079 15.8136 16.3875 15.8136L13.8874 15.8136Z" fill="#666666"/>
</svg>
