<svg width="20" height="22" viewBox="0 0 20 22" fill="none" xmlns="http://www.w3.org/2000/svg">
<path d="M5.71429 0C6.30804 0 6.78571 0.459766 6.78571 1.03125V2.75H13.2143V1.03125C13.2143 0.459766 13.692 0 14.2857 0C14.8795 0 15.3571 0.459766 15.3571 1.03125V2.75H17.1429C18.7188 2.75 20 3.9832 20 5.5V6.1875V8.25V19.25C20 20.7668 18.7188 22 17.1429 22H2.85714C1.28125 22 0 20.7668 0 19.25V8.25V6.1875V5.5C0 3.9832 1.28125 2.75 2.85714 2.75H4.64286V1.03125C4.64286 0.459766 5.12054 0 5.71429 0ZM17.8571 8.25H2.14286V19.25C2.14286 19.6281 2.46429 19.9375 2.85714 19.9375H17.1429C17.5357 19.9375 17.8571 19.6281 17.8571 19.25V8.25ZM14.6875 12.7617L9.6875 17.5742C9.26786 17.9781 8.58929 17.9781 8.17411 17.5742L5.31696 14.8242C4.89732 14.4203 4.89732 13.7672 5.31696 13.3676C5.73661 12.968 6.41518 12.9637 6.83036 13.3676L8.92857 15.3871L13.1696 11.3051C13.5893 10.9012 14.2679 10.9012 14.683 11.3051C15.0982 11.709 15.1027 12.3621 14.683 12.7617H14.6875Z" fill="#666666"/>
</svg>
