<svg width="143" height="146" viewBox="0 0 143 146" fill="none" xmlns="http://www.w3.org/2000/svg">
<path d="M88.0402 26.7925C85.5173 39.0587 76.0288 47.4313 66.8375 45.5154C57.6462 43.5995 52.2371 32.0957 54.76 19.8295C57.283 7.56333 66.7715 -0.809251 75.9628 1.10663C85.1541 3.02251 90.5632 14.5263 88.0402 26.7925ZM43.2485 34.7432C43.2798 45.1253 36.958 53.5349 29.1608 53.5115C21.3636 53.4881 15.0109 45.0541 15.0035 34.6858C14.9961 24.3174 21.2701 15.8803 29.0673 15.9037C36.8645 15.9271 43.2172 24.361 43.2246 34.7294L43.2485 34.7432ZM7.72595 79.0417C39.8267 52.3762 67.0599 56.6156 76.9349 62.317C86.8099 68.0183 104.098 89.4832 97.0554 130.616C96.5726 133.44 95.5146 136.156 94.0741 138.651L93.8525 139.035C90.2789 145.225 82.3867 147.354 76.2178 143.792C73.4681 142.204 70.9362 140.295 68.67 138.091L50.6761 120.665C47.5441 117.641 43.7185 115.432 39.5338 114.232L15.4454 107.362C12.4035 106.501 9.48377 105.263 6.73407 103.676C0.565169 100.114 -1.53722 92.2146 2.03638 86.025L2.258 85.6411C3.69852 83.1461 5.52161 80.8719 7.72595 79.0417ZM108.448 99.2879C104.529 92.547 108.651 82.8674 117.658 77.7034C126.665 72.5394 137.121 73.8102 141.04 80.5511C144.959 87.292 140.837 96.9716 131.83 102.136C122.823 107.3 112.367 106.029 108.448 99.2879ZM94.6214 61.5564C88.3666 54.5545 90.8732 42.1509 100.235 33.8329C109.596 25.5148 122.263 24.4474 128.518 31.4494C134.773 38.4513 132.266 50.8549 122.905 59.1729C113.543 67.491 100.876 68.5584 94.6214 61.5564Z" fill="white" fill-opacity="0.2"/>
</svg>
