<svg width="16" height="13" viewBox="0 0 16 13" fill="none" xmlns="http://www.w3.org/2000/svg">
<path d="M8.00081 12.0687C12.4191 12.0687 16 9.36777 16 6.03437C16 2.70096 12.4191 0 8.00081 0C3.58251 0 0.00162339 2.70096 0.00162339 6.03437C0.00162339 7.34278 0.554692 8.55256 1.4921 9.54184C1.43273 10.2526 1.13588 10.8851 0.823415 11.3667C0.651557 11.6336 0.476575 11.8482 0.348463 11.9933C0.282845 12.0658 0.23285 12.121 0.195354 12.1587C0.176606 12.1761 0.164107 12.1906 0.154733 12.1993L0.145359 12.208C0.00162339 12.3414 -0.0389975 12.5387 0.0391196 12.7128C0.117237 12.8869 0.298468 13 0.501573 13C1.39836 13 2.30139 12.7418 3.05131 12.4401C3.76687 12.15 4.37618 11.8047 4.74802 11.5523C5.74167 11.886 6.84155 12.0716 8.00081 12.0716V12.0687ZM4.00122 5.106C4.26641 5.106 4.52074 5.20381 4.70825 5.37791C4.89577 5.55202 5.00112 5.78815 5.00112 6.03437C5.00112 6.28058 4.89577 6.51672 4.70825 6.69082C4.52074 6.86492 4.26641 6.96273 4.00122 6.96273C3.73603 6.96273 3.4817 6.86492 3.29418 6.69082C3.10667 6.51672 3.00132 6.28058 3.00132 6.03437C3.00132 5.78815 3.10667 5.55202 3.29418 5.37791C3.4817 5.20381 3.73603 5.106 4.00122 5.106ZM8.00081 5.106C8.266 5.106 8.52033 5.20381 8.70785 5.37791C8.89536 5.55202 9.00071 5.78815 9.00071 6.03437C9.00071 6.28058 8.89536 6.51672 8.70785 6.69082C8.52033 6.86492 8.266 6.96273 8.00081 6.96273C7.73562 6.96273 7.48129 6.86492 7.29378 6.69082C7.10626 6.51672 7.00091 6.28058 7.00091 6.03437C7.00091 5.78815 7.10626 5.55202 7.29378 5.37791C7.48129 5.20381 7.73562 5.106 8.00081 5.106ZM11.0005 6.03437C11.0005 5.78815 11.1059 5.55202 11.2934 5.37791C11.4809 5.20381 11.7352 5.106 12.0004 5.106C12.2656 5.106 12.5199 5.20381 12.7074 5.37791C12.895 5.55202 13.0003 5.78815 13.0003 6.03437C13.0003 6.28058 12.895 6.51672 12.7074 6.69082C12.5199 6.86492 12.2656 6.96273 12.0004 6.96273C11.7352 6.96273 11.4809 6.86492 11.2934 6.69082C11.1059 6.51672 11.0005 6.28058 11.0005 6.03437Z" fill="#654222"/>
</svg>
