<svg width="7" height="8" viewBox="0 0 7 8" fill="none" xmlns="http://www.w3.org/2000/svg">
<path d="M3.85354 3.59656C4.04882 3.8197 4.04882 4.18208 3.85354 4.40522L0.85413 7.83265C0.658856 8.05578 0.34173 8.05578 0.146456 7.83265C-0.0488186 7.60951 -0.0488186 7.24713 0.146456 7.02399L2.79281 4L0.148018 0.976012C-0.0472564 0.752873 -0.0472564 0.390494 0.148018 0.167355C0.343292 -0.0557848 0.660418 -0.0557848 0.855693 0.167355L3.85511 3.59478L3.85354 3.59656Z" fill="#654222"/>
<path d="M6.85354 3.59656C7.04882 3.8197 7.04882 4.18208 6.85354 4.40522L3.85413 7.83265C3.65886 8.05578 3.34173 8.05578 3.14646 7.83265C2.95118 7.60951 2.95118 7.24713 3.14646 7.02399L5.79281 4L3.14802 0.976012C2.95274 0.752873 2.95274 0.390494 3.14802 0.167355C3.34329 -0.0557848 3.66042 -0.0557848 3.85569 0.167355L6.85511 3.59478L6.85354 3.59656Z" fill="#654222"/>
</svg>
