<svg width="125" height="20" viewBox="0 0 125 20" fill="none" xmlns="http://www.w3.org/2000/svg">
<path d="M0 0.262695H2.71045V8.4177H11.5875V0.262695H14.3334V19.0701H11.5875V10.8441H2.71045V19.0701H0V0.262695Z" fill="#323232"/>
<path d="M24.6423 19.2956C19.979 19.2956 16.582 15.6383 16.582 9.64928C16.582 3.66026 19.979 0.00292969 24.6423 0.00292969C29.3057 0.00292969 32.6672 3.68393 32.6672 9.60193C32.6672 15.5199 29.2466 19.2956 24.6423 19.2956ZM24.6423 2.61869C21.5532 2.61869 19.2688 5.08058 19.2688 9.64928C19.2688 14.218 21.5532 16.7035 24.6423 16.7035C27.7315 16.7035 29.9804 14.2416 29.9804 9.67295C29.9804 5.10425 27.696 2.61869 24.6423 2.61869Z" fill="#323232"/>
<path d="M33.2705 0.262695H47.095V2.72458H41.5557V19.0701H38.8571V2.72458H33.2705V0.262695Z" fill="#323232"/>
<path d="M49.1309 0.262695H60.3159V2.72458H51.8413V8.4177H59.7241V10.8559H51.8413V16.5845H60.4106V19.0701H49.1309V0.262695Z" fill="#323232"/>
<path d="M62.8613 0.262695H65.5718V16.5727H73.6203V19.0701H62.8613V0.262695Z" fill="#323232"/>
<path d="M75.667 19.0701V0.262695H81.585C86.8402 0.262695 89.9886 3.8135 89.9886 9.62498C89.9886 15.4365 86.8402 19.0938 81.4193 19.0938L75.667 19.0701ZM81.3009 16.5845C85.3488 16.5845 87.3373 14.0871 87.3373 9.66048C87.3373 5.23382 85.3488 2.78376 81.4193 2.78376H78.3419V16.549L81.3009 16.5845Z" fill="#323232"/>
<path d="M99.777 19.2956C95.1255 19.2956 91.7285 15.6383 91.7285 9.64928C91.7285 3.66026 95.1255 0.00292969 99.777 0.00292969C104.429 0.00292969 107.837 3.68393 107.837 9.60193C107.837 15.5199 104.381 19.2956 99.777 19.2956ZM99.777 2.61869C96.6996 2.61869 94.4153 5.08058 94.4153 9.64928C94.4153 14.218 96.6996 16.7035 99.777 16.7035C102.854 16.7035 105.127 14.2416 105.127 9.67295C105.127 5.10425 102.831 2.61869 99.777 2.61869Z" fill="#323232"/>
<path d="M117.519 2.61858C114.513 2.61858 112.193 5.11598 112.193 9.64917C112.193 14.1824 114.489 16.6798 117.638 16.6798C118.28 16.7029 118.92 16.5907 119.516 16.3504C120.112 16.1101 120.651 15.7471 121.097 15.285C121.544 14.8228 121.888 14.2719 122.108 13.668C122.327 13.0641 122.417 12.4207 122.372 11.7796H117.981V9.41245H125V11.5429C125 16.2773 121.899 19.2955 117.567 19.2955C112.738 19.2955 109.459 15.5908 109.459 9.64917C109.459 3.70749 112.832 0.00282076 117.448 0.00282076C119.23 -0.0466596 120.969 0.556267 122.338 1.69832C123.706 2.84037 124.611 4.44293 124.881 6.20489H122.1C121.866 5.17125 121.282 4.25001 120.448 3.59666C119.613 2.94331 118.579 2.59785 117.519 2.61858Z" fill="#323232"/>
</svg>
