<svg width="100" height="100" viewBox="0 0 100 100" fill="none" xmlns="http://www.w3.org/2000/svg">
<path d="M0 100L23.2019 31.7073L64.9652 75.6098L0 100ZM58.2367 53.9024L53.3643 48.7805L79.3503 21.4634C81.8252 18.8618 84.8028 17.561 88.2831 17.561C91.7633 17.561 94.7409 18.8618 97.2158 21.4634L100 24.3902L95.1276 29.5122L92.3434 26.5854C91.2606 25.4472 89.9072 24.878 88.2831 24.878C86.6589 24.878 85.3055 25.4472 84.2227 26.5854L58.2367 53.9024ZM39.6752 34.3902L34.8028 29.2683L37.587 26.3415C38.6698 25.2033 39.2111 23.8211 39.2111 22.1951C39.2111 20.5691 38.6698 19.187 37.587 18.0488L34.5708 14.878L39.4432 9.7561L42.4594 12.9268C44.9343 15.5285 46.1717 18.6179 46.1717 22.1951C46.1717 25.7724 44.9343 28.8618 42.4594 31.4634L39.6752 34.3902ZM48.9559 44.1463L44.0835 39.0244L60.7889 21.4634C61.8716 20.3252 62.413 18.9024 62.413 17.1951C62.413 15.4878 61.8716 14.065 60.7889 12.9268L53.3643 5.12195L58.2367 0L65.6613 7.80488C68.1361 10.4065 69.3736 13.5366 69.3736 17.1951C69.3736 20.8537 68.1361 23.9837 65.6613 26.5854L48.9559 44.1463ZM67.5174 63.6585L62.645 58.5366L70.0696 50.7317C72.5445 48.1301 75.522 46.8293 79.0023 46.8293C82.4826 46.8293 85.4602 48.1301 87.935 50.7317L95.3596 58.5366L90.4872 63.6585L83.0626 55.8537C81.9799 54.7154 80.6264 54.1463 79.0023 54.1463C77.3782 54.1463 76.0247 54.7154 74.942 55.8537L67.5174 63.6585Z" fill="#346FFF"/>
</svg>
