<svg width="124" height="51" viewBox="0 0 124 51" fill="none" xmlns="http://www.w3.org/2000/svg">
<rect width="124" height="51" rx="5" fill="black"/>
<path d="M27.73 23.53C29.09 23.53 30.29 23.78 31.33 24.28C32.37 24.78 33.18 25.51 33.76 26.47C34.36 27.41 34.66 28.57 34.66 29.95C34.66 31.47 34.34 32.78 33.7 33.88C33.06 34.98 32.12 35.83 30.88 36.43C29.64 37.01 28.12 37.3 26.32 37.3C25.2 37.3 24.15 37.2 23.17 37C22.19 36.8 21.34 36.51 20.62 36.13V32.77C21.36 33.17 22.25 33.5 23.29 33.76C24.33 34.02 25.31 34.15 26.23 34.15C27.19 34.15 28.01 34.02 28.69 33.76C29.37 33.48 29.89 33.06 30.25 32.5C30.61 31.92 30.79 31.19 30.79 30.31C30.79 29.11 30.41 28.2 29.65 27.58C28.89 26.96 27.71 26.65 26.11 26.65C25.55 26.65 24.94 26.7 24.28 26.8C23.64 26.9 23.11 27 22.69 27.1L21.07 26.2L21.88 15.58H33.16V18.88H25.21L24.76 23.83C25.1 23.77 25.5 23.71 25.96 23.65C26.44 23.57 27.03 23.53 27.73 23.53ZM52.068 26.26C52.068 28 51.938 29.55 51.678 30.91C51.418 32.27 50.988 33.43 50.388 34.39C49.808 35.33 49.048 36.05 48.108 36.55C47.188 37.05 46.058 37.3 44.718 37.3C43.038 37.3 41.658 36.86 40.578 35.98C39.498 35.1 38.698 33.84 38.178 32.2C37.658 30.54 37.398 28.56 37.398 26.26C37.398 23.96 37.638 21.99 38.118 20.35C38.598 18.71 39.368 17.45 40.428 16.57C41.508 15.69 42.938 15.25 44.718 15.25C46.398 15.25 47.778 15.69 48.858 16.57C49.938 17.43 50.738 18.69 51.258 20.35C51.798 21.99 52.068 23.96 52.068 26.26ZM41.208 26.29C41.208 28.03 41.318 29.49 41.538 30.67C41.758 31.83 42.118 32.71 42.618 33.31C43.138 33.89 43.838 34.18 44.718 34.18C45.598 34.18 46.288 33.89 46.788 33.31C47.308 32.73 47.678 31.85 47.898 30.67C48.138 29.49 48.258 28.03 48.258 26.29C48.258 24.53 48.138 23.07 47.898 21.91C47.678 20.73 47.308 19.85 46.788 19.27C46.288 18.67 45.598 18.37 44.718 18.37C43.838 18.37 43.138 18.67 42.618 19.27C42.118 19.85 41.758 20.72 41.538 21.88C41.318 23.04 41.208 24.51 41.208 26.29ZM69.2359 26.26C69.2359 28 69.1059 29.55 68.8459 30.91C68.5859 32.27 68.1559 33.43 67.5559 34.39C66.9759 35.33 66.2159 36.05 65.2759 36.55C64.3559 37.05 63.2259 37.3 61.8859 37.3C60.2059 37.3 58.8259 36.86 57.7459 35.98C56.6659 35.1 55.8659 33.84 55.3459 32.2C54.8259 30.54 54.5659 28.56 54.5659 26.26C54.5659 23.96 54.8059 21.99 55.2859 20.35C55.7659 18.71 56.5359 17.45 57.5959 16.57C58.6759 15.69 60.1059 15.25 61.8859 15.25C63.5659 15.25 64.9459 15.69 66.0259 16.57C67.1059 17.43 67.9059 18.69 68.4259 20.35C68.9659 21.99 69.2359 23.96 69.2359 26.26ZM58.3759 26.29C58.3759 28.03 58.4859 29.49 58.7059 30.67C58.9259 31.83 59.2859 32.71 59.7859 33.31C60.3059 33.89 61.0059 34.18 61.8859 34.18C62.7659 34.18 63.4559 33.89 63.9559 33.31C64.4759 32.73 64.8459 31.85 65.0659 30.67C65.3059 29.49 65.4259 28.03 65.4259 26.29C65.4259 24.53 65.3059 23.07 65.0659 21.91C64.8459 20.73 64.4759 19.85 63.9559 19.27C63.4559 18.67 62.7659 18.37 61.8859 18.37C61.0059 18.37 60.3059 18.67 59.7859 19.27C59.2859 19.85 58.9259 20.72 58.7059 21.88C58.4859 23.04 58.3759 24.51 58.3759 26.29ZM86.4039 26.26C86.4039 28 86.2739 29.55 86.0139 30.91C85.7539 32.27 85.3239 33.43 84.7239 34.39C84.1439 35.33 83.3839 36.05 82.4439 36.55C81.5239 37.05 80.3939 37.3 79.0539 37.3C77.3739 37.3 75.9939 36.86 74.9139 35.98C73.8339 35.1 73.0339 33.84 72.5139 32.2C71.9939 30.54 71.7339 28.56 71.7339 26.26C71.7339 23.96 71.9739 21.99 72.4539 20.35C72.9339 18.71 73.7039 17.45 74.7639 16.57C75.8439 15.69 77.2739 15.25 79.0539 15.25C80.7339 15.25 82.1139 15.69 83.1939 16.57C84.2739 17.43 85.0739 18.69 85.5939 20.35C86.1339 21.99 86.4039 23.96 86.4039 26.26ZM75.5439 26.29C75.5439 28.03 75.6539 29.49 75.8739 30.67C76.0939 31.83 76.4539 32.71 76.9539 33.31C77.4739 33.89 78.1739 34.18 79.0539 34.18C79.9339 34.18 80.6239 33.89 81.1239 33.31C81.6439 32.73 82.0139 31.85 82.2339 30.67C82.4739 29.49 82.5939 28.03 82.5939 26.29C82.5939 24.53 82.4739 23.07 82.2339 21.91C82.0139 20.73 81.6439 19.85 81.1239 19.27C80.6239 18.67 79.9339 18.37 79.0539 18.37C78.1739 18.37 77.4739 18.67 76.9539 19.27C76.4539 19.85 76.0939 20.72 75.8739 21.88C75.6539 23.04 75.5439 24.51 75.5439 26.29ZM103.572 26.26C103.572 28 103.442 29.55 103.182 30.91C102.922 32.27 102.492 33.43 101.892 34.39C101.312 35.33 100.552 36.05 99.6119 36.55C98.6919 37.05 97.5619 37.3 96.2219 37.3C94.5419 37.3 93.1619 36.86 92.0819 35.98C91.0019 35.1 90.2019 33.84 89.6819 32.2C89.1619 30.54 88.9019 28.56 88.9019 26.26C88.9019 23.96 89.1419 21.99 89.6219 20.35C90.1019 18.71 90.8719 17.45 91.9319 16.57C93.0119 15.69 94.4419 15.25 96.2219 15.25C97.9019 15.25 99.2819 15.69 100.362 16.57C101.442 17.43 102.242 18.69 102.762 20.35C103.302 21.99 103.572 23.96 103.572 26.26ZM92.7119 26.29C92.7119 28.03 92.8219 29.49 93.0419 30.67C93.2619 31.83 93.6219 32.71 94.1219 33.31C94.6419 33.89 95.3419 34.18 96.2219 34.18C97.1019 34.18 97.7919 33.89 98.2919 33.31C98.8119 32.73 99.1819 31.85 99.4019 30.67C99.6419 29.49 99.7619 28.03 99.7619 26.29C99.7619 24.53 99.6419 23.07 99.4019 21.91C99.1819 20.73 98.8119 19.85 98.2919 19.27C97.7919 18.67 97.1019 18.37 96.2219 18.37C95.3419 18.37 94.6419 18.67 94.1219 19.27C93.6219 19.85 93.2619 20.72 93.0419 21.88C92.8219 23.04 92.7119 24.51 92.7119 26.29Z" fill="white"/>
</svg>
