<svg width="100" height="100" viewBox="0 0 100 100" fill="none" xmlns="http://www.w3.org/2000/svg">
<path d="M80.3791 24.9999H83.3374C84.4425 24.9999 85.5023 25.4389 86.2837 26.2203C87.0651 27.0017 87.5041 28.0615 87.5041 29.1666V58.3333C87.5041 59.4383 87.0651 60.4982 86.2837 61.2796C85.5023 62.061 84.4425 62.4999 83.3374 62.4999H75.0041L57.6291 38.1833C56.6185 36.7693 55.1912 35.7066 53.5467 35.1441C51.9023 34.5815 50.1232 34.5471 48.4583 35.0458L38.0999 38.1541C36.659 38.5855 35.1282 38.6188 33.6698 38.2505C32.2115 37.8823 30.88 37.1262 29.8166 36.0624L28.5958 34.8416C28.1599 34.4058 27.8261 33.8788 27.6185 33.2984C27.4109 32.7181 27.3347 32.0989 27.3953 31.4855C27.4558 30.8721 27.6517 30.2799 27.9689 29.7513C28.286 29.2228 28.7164 28.7712 29.2291 28.4291L51.7333 13.4291C53.0767 12.5329 54.6515 12.0463 56.2663 12.0286C57.8811 12.0108 59.4663 12.4627 60.8291 13.3291L78.1457 24.3499C78.8122 24.7735 79.5894 24.9989 80.3791 24.9999ZM20.9458 59.5624L14.2124 65.4541C13.7522 65.8575 13.3866 66.3573 13.1414 66.9181C12.8962 67.4788 12.7776 68.0866 12.7939 68.6984C12.8102 69.3101 12.961 69.9108 13.2357 70.4576C13.5104 71.0045 13.9022 71.4841 14.3833 71.8624L35.7999 88.6958C36.2707 89.0664 36.8159 89.3311 37.3983 89.4719C37.9807 89.6126 38.5866 89.6261 39.1747 89.5114C39.7628 89.3967 40.3193 89.1566 40.8061 88.8073C41.2929 88.458 41.6987 88.0078 41.9958 87.4874L44.9291 82.3541C45.8026 80.8254 46.1695 79.0593 45.9771 77.3092C45.7847 75.5591 45.043 73.9149 43.8582 72.6124L32.5999 60.2291C31.1317 58.6138 29.0884 57.639 26.9091 57.5143C24.7298 57.3896 22.5886 58.1251 20.9458 59.5624ZM29.3583 20.8333H12.4999C11.3948 20.8333 10.335 21.2723 9.55364 22.0537C8.77224 22.8351 8.33325 23.8949 8.33325 24.9999V56.3166C8.33348 57.9972 8.84183 59.6385 9.79158 61.0249C9.89261 60.9313 9.99541 60.8397 10.0999 60.7499L16.8291 54.8583C19.7041 52.3425 23.4514 51.0554 27.2654 51.2735C31.0794 51.4917 34.6556 53.1978 37.2249 56.0249L48.4832 68.4083C50.5553 70.6869 51.8527 73.5631 52.1895 76.6245C52.5263 79.6859 51.8853 82.7753 50.3583 85.45L47.6291 90.225C48.8065 90.6714 50.0698 90.8453 51.3241 90.7334C52.5783 90.6216 53.7909 90.2269 54.8708 89.5791L73.2458 78.5541C73.7384 78.2581 74.1646 77.8633 74.4973 77.3946C74.83 76.926 75.0622 76.3935 75.1792 75.8308C75.2962 75.268 75.2955 74.6872 75.1772 74.1247C75.0589 73.5622 74.8254 73.0303 74.4916 72.5625L52.5457 41.8166C52.293 41.4635 51.9363 41.1982 51.5254 41.0577C51.1146 40.9173 50.6701 40.9087 50.2541 41.0333L39.8958 44.1374C37.3741 44.8939 34.6946 44.9536 32.1418 44.3103C29.5889 43.6669 27.2578 42.3445 25.3958 40.4833L24.1749 39.2624C23.0849 38.173 22.2501 36.8552 21.7309 35.4041C21.2117 33.953 21.021 32.4048 21.1724 30.8711C21.3239 29.3374 21.8138 27.8564 22.6068 26.5349C23.3998 25.2134 24.4761 24.0843 25.7583 23.2291L29.3583 20.8333Z" fill="#346FFF"/>
</svg>
