<svg width="85" height="85" viewBox="0 0 85 85" fill="none" xmlns="http://www.w3.org/2000/svg">
<path d="M68.3222 21.25H70.8368C71.7761 21.25 72.6769 21.6231 73.3411 22.2873C74.0053 22.9515 74.3785 23.8523 74.3785 24.7916V49.5833C74.3785 50.5226 74.0053 51.4234 73.3411 52.0876C72.6769 52.7518 71.7761 53.125 70.8368 53.125H63.7535L48.9847 32.4558C48.1257 31.2539 46.9125 30.3507 45.5147 29.8725C44.117 29.3943 42.6047 29.3651 41.1895 29.7889L32.3849 32.431C31.1601 32.7977 29.8589 32.826 28.6193 32.513C27.3797 32.1999 26.248 31.5573 25.3441 30.6531L24.3064 29.6154C23.9359 29.245 23.6522 28.797 23.4757 28.3037C23.2993 27.8104 23.2345 27.2841 23.286 26.7627C23.3374 26.2413 23.504 25.7379 23.7735 25.2886C24.0431 24.8394 24.4089 24.4555 24.8447 24.1648L43.9733 11.4148C45.1151 10.653 46.4538 10.2394 47.8264 10.2243C49.1989 10.2092 50.5463 10.5933 51.7047 11.3298L66.4239 20.6975C66.9904 21.0575 67.651 21.2491 68.3222 21.25ZM17.8039 50.6281L12.0805 55.636C11.6894 55.9789 11.3786 56.4038 11.1702 56.8804C10.9618 57.357 10.8609 57.8736 10.8748 58.3936C10.8886 58.9136 11.0169 59.4242 11.2504 59.889C11.4839 60.3538 11.8169 60.7615 12.2258 61.0831L30.4299 75.3914C30.8301 75.7065 31.2935 75.9314 31.7886 76.0511C32.2836 76.1707 32.7986 76.1822 33.2985 76.0847C33.7984 75.9872 34.2714 75.7831 34.6852 75.4862C35.099 75.1893 35.4439 74.8066 35.6964 74.3643L38.1897 70.001C38.9322 68.7016 39.244 67.2005 39.0805 65.7129C38.917 64.2253 38.2865 62.8277 37.2795 61.7206L27.7099 51.1948C26.462 49.8217 24.7251 48.9931 22.8727 48.8872C21.0203 48.7812 19.2003 49.4063 17.8039 50.6281ZM24.9545 17.7083H10.6249C9.68561 17.7083 8.78477 18.0814 8.12058 18.7456C7.45639 19.4098 7.08325 20.3107 7.08325 21.25V47.8691C7.08344 49.2976 7.51554 50.6927 8.32283 51.8712C8.40871 51.7916 8.49609 51.7137 8.58492 51.6375L14.3047 46.6295C16.7484 44.4912 19.9337 43.3971 23.1756 43.5825C26.4175 43.768 29.4572 45.2181 31.6412 47.6212L41.2108 58.147C42.972 60.0839 44.0747 62.5286 44.3611 65.1308C44.6474 67.733 44.1025 70.359 42.8045 72.6325L40.4847 76.6912C41.4855 77.0707 42.5593 77.2185 43.6254 77.1234C44.6916 77.0283 45.7223 76.6929 46.6401 76.1423L62.2589 66.771C62.6777 66.5194 63.0399 66.1838 63.3227 65.7855C63.6055 65.3871 63.8029 64.9345 63.9023 64.4562C64.0018 63.9778 64.0012 63.4841 63.9006 63.006C63.8 62.5279 63.6016 62.0758 63.3178 61.6781L44.6639 35.5441C44.4491 35.244 44.1459 35.0185 43.7966 34.8991C43.4474 34.7797 43.0695 34.7724 42.716 34.8783L33.9114 37.5168C31.7679 38.1598 29.4904 38.2106 27.3205 37.6637C25.1505 37.1169 23.1691 35.9928 21.5864 34.4108L20.5487 33.3731C19.6221 32.447 18.9126 31.3269 18.4713 30.0935C18.0299 28.8601 17.8678 27.5441 17.9965 26.2404C18.1253 24.9368 18.5417 23.6779 19.2157 22.5547C19.8898 21.4314 20.8047 20.4717 21.8945 19.7448L24.9545 17.7083Z" fill="black"/>
</svg>
