<svg width="85" height="85" viewBox="0 0 85 85" fill="none" xmlns="http://www.w3.org/2000/svg">
<path d="M71.7188 23.9062H18.5938C17.8893 23.9062 17.2136 23.6264 16.7155 23.1283C16.2174 22.6301 15.9375 21.9545 15.9375 21.25C15.9375 20.5455 16.2174 19.8699 16.7155 19.3717C17.2136 18.8736 17.8893 18.5938 18.5938 18.5938H63.75C64.4545 18.5938 65.1301 18.3139 65.6283 17.8158C66.1264 17.3176 66.4062 16.642 66.4062 15.9375C66.4062 15.233 66.1264 14.5574 65.6283 14.0592C65.1301 13.5611 64.4545 13.2812 63.75 13.2812H18.5938C16.4803 13.2812 14.4534 14.1208 12.959 15.6152C11.4646 17.1097 10.625 19.1366 10.625 21.25V63.75C10.625 65.8634 11.4646 67.8903 12.959 69.3848C14.4534 70.8792 16.4803 71.7188 18.5938 71.7188H71.7188C73.1277 71.7188 74.479 71.159 75.4753 70.1628C76.4715 69.1665 77.0312 67.8152 77.0312 66.4062V29.2188C77.0312 27.8098 76.4715 26.4585 75.4753 25.4622C74.479 24.466 73.1277 23.9062 71.7188 23.9062ZM59.7656 50.4688C58.9776 50.4688 58.2073 50.2351 57.552 49.7973C56.8968 49.3595 56.3861 48.7372 56.0845 48.0091C55.783 47.2811 55.7041 46.48 55.8578 45.7071C56.0115 44.9342 56.391 44.2242 56.9482 43.667C57.5055 43.1098 58.2154 42.7303 58.9883 42.5766C59.7612 42.4228 60.5623 42.5017 61.2904 42.8033C62.0184 43.1049 62.6407 43.6155 63.0785 44.2708C63.5163 44.926 63.75 45.6963 63.75 46.4844C63.75 47.5411 63.3302 48.5545 62.583 49.3018C61.8358 50.049 60.8223 50.4688 59.7656 50.4688Z" fill="black"/>
</svg>
