<svg width="100" height="100" viewBox="0 0 100 100" fill="none" xmlns="http://www.w3.org/2000/svg">
<g clip-path="url(#clip0_1404_7452)">
<path d="M49.9999 8.33325C73.0124 8.33325 91.6666 26.9874 91.6666 49.9999C91.6666 73.0124 73.0124 91.6666 49.9999 91.6666C26.9874 91.6666 8.33325 73.0124 8.33325 49.9999C8.33325 26.9874 26.9874 8.33325 49.9999 8.33325ZM49.9999 16.6666C41.1594 16.6666 32.6809 20.1785 26.4297 26.4297C20.1785 32.6809 16.6666 41.1594 16.6666 49.9999C16.6666 58.8405 20.1785 67.3189 26.4297 73.5702C32.6809 79.8214 41.1594 83.3333 49.9999 83.3333C58.8405 83.3333 67.3189 79.8214 73.5702 73.5702C79.8214 67.3189 83.3333 58.8405 83.3333 49.9999C83.3333 41.1594 79.8214 32.6809 73.5702 26.4297C67.3189 20.1785 58.8405 16.6666 49.9999 16.6666ZM49.9999 62.4999C51.105 62.4999 52.1648 62.9389 52.9462 63.7203C53.7276 64.5017 54.1666 65.5615 54.1666 66.6666C54.1666 67.7717 53.7276 68.8315 52.9462 69.6129C52.1648 70.3943 51.105 70.8333 49.9999 70.8333C48.8949 70.8333 47.835 70.3943 47.0536 69.6129C46.2722 68.8315 45.8333 67.7717 45.8333 66.6666C45.8333 65.5615 46.2722 64.5017 47.0536 63.7203C47.835 62.9389 48.8949 62.4999 49.9999 62.4999ZM49.9999 24.9999C51.105 24.9999 52.1648 25.4389 52.9462 26.2203C53.7276 27.0017 54.1666 28.0615 54.1666 29.1666V54.1666C54.1666 55.2717 53.7276 56.3315 52.9462 57.1129C52.1648 57.8943 51.105 58.3333 49.9999 58.3333C48.8949 58.3333 47.835 57.8943 47.0536 57.1129C46.2722 56.3315 45.8333 55.2717 45.8333 54.1666V29.1666C45.8333 28.0615 46.2722 27.0017 47.0536 26.2203C47.835 25.4389 48.8949 24.9999 49.9999 24.9999Z" fill="#346FFF"/>
</g>
<defs>
<clipPath id="clip0_1404_7452">
<rect width="100" height="100" fill="white"/>
</clipPath>
</defs>
</svg>
