<svg width="20" height="20" viewBox="0 0 20 20" fill="none" xmlns="http://www.w3.org/2000/svg">
<rect x="0.5" y="0.5" width="19" height="19" rx="4.5" stroke="#654222"/>
<g clip-path="url(#clip0_303_264)">
<path d="M10.9527 5.04735C10.9527 4.52057 10.5271 4.09497 10.0003 4.09497C9.4735 4.09497 9.04791 4.52057 9.04791 5.04735V9.33307H4.7622C4.23541 9.33307 3.80981 9.75866 3.80981 10.2854C3.80981 10.8122 4.23541 11.2378 4.7622 11.2378H9.04791V15.5235C9.04791 16.0503 9.4735 16.4759 10.0003 16.4759C10.5271 16.4759 10.9527 16.0503 10.9527 15.5235V11.2378H15.2384C15.7652 11.2378 16.1908 10.8122 16.1908 10.2854C16.1908 9.75866 15.7652 9.33307 15.2384 9.33307H10.9527V5.04735Z" fill="#654222"/>
<path d="M10.6617 5.27318C10.6617 4.7464 10.2361 4.3208 9.70927 4.3208C9.18249 4.3208 8.75689 4.7464 8.75689 5.27318V9.5589H4.47118C3.94439 9.5589 3.5188 9.98449 3.5188 10.5113C3.5188 11.0381 3.94439 11.4637 4.47118 11.4637H8.75689V15.7494C8.75689 16.2762 9.18249 16.7018 9.70927 16.7018C10.2361 16.7018 10.6617 16.2762 10.6617 15.7494V11.4637H14.9474C15.4742 11.4637 15.8997 11.0381 15.8997 10.5113C15.8997 9.98449 15.4742 9.5589 14.9474 9.5589H10.6617V5.27318Z" fill="#654222"/>
</g>
<defs>
<clipPath id="clip0_303_264">
<rect width="13.3333" height="15.2381" fill="white" transform="translate(3.3335 2.6665)"/>
</clipPath>
</defs>
</svg>
