<svg width="20" height="23" viewBox="0 0 20 23" fill="none" xmlns="http://www.w3.org/2000/svg">
<path d="M6.78571 1.07639C6.78571 0.47989 6.30804 0 5.71429 0C5.12054 0 4.64286 0.47989 4.64286 1.07639V2.87037H2.85714C1.28125 2.87037 0 4.15755 0 5.74074V6.45833V8.61111V20.0926C0 21.6758 1.28125 22.963 2.85714 22.963H17.1429C18.7188 22.963 20 21.6758 20 20.0926V8.61111V6.45833V5.74074C20 4.15755 18.7188 2.87037 17.1429 2.87037H15.3571V1.07639C15.3571 0.47989 14.8795 0 14.2857 0C13.692 0 13.2143 0.47989 13.2143 1.07639V2.87037H6.78571V1.07639ZM2.14286 8.61111H17.8571V20.0926C17.8571 20.4873 17.5357 20.8102 17.1429 20.8102H2.85714C2.46429 20.8102 2.14286 20.4873 2.14286 20.0926V8.61111Z" fill="#654222"/>
</svg>
