<svg width="19" height="20" viewBox="0 0 19 20" fill="none" xmlns="http://www.w3.org/2000/svg">
<path d="M6.68461 0.92713C6.68461 0.413345 6.27317 0 5.76175 0C5.25033 0 4.83889 0.413345 4.83889 0.92713V2.47235H3.3008C1.94343 2.47235 0.839844 3.58104 0.839844 4.94469V5.56278V7.41704V17.3064C0.839844 18.6701 1.94343 19.7788 3.3008 19.7788H15.6056C16.9629 19.7788 18.0665 18.6701 18.0665 17.3064V7.41704V5.56278V4.94469C18.0665 3.58104 16.9629 2.47235 15.6056 2.47235H14.0675V0.92713C14.0675 0.413345 13.656 0 13.1446 0C12.6332 0 12.2218 0.413345 12.2218 0.92713V2.47235H6.68461V0.92713ZM2.68556 7.41704H16.2208V17.3064C16.2208 17.6464 15.9439 17.9245 15.6056 17.9245H3.3008C2.96242 17.9245 2.68556 17.6464 2.68556 17.3064V7.41704Z" fill="#9C9C9C"/>
</svg>
