<svg width="14" height="14" viewBox="0 0 14 14" fill="none" xmlns="http://www.w3.org/2000/svg">
<path d="M13.3139 3.06602C13.8412 2.55902 13.8576 1.72342 13.3506 1.19615C12.8436 0.66888 12.008 0.652508 11.4807 1.15951L7.19107 5.28429L3.0663 0.994644C2.5593 0.467376 1.7237 0.451003 1.19643 0.958007C0.66916 1.46501 0.652788 2.30061 1.15979 2.82788L5.28457 7.11752L0.994923 11.2423C0.467654 11.7493 0.451282 12.5849 0.958286 13.1122C1.46529 13.6394 2.30089 13.6558 2.82816 13.1488L7.1178 9.02403L11.2426 13.3137C11.7496 13.8409 12.5852 13.8573 13.1124 13.3503C13.6397 12.8433 13.6561 12.0077 13.1491 11.4804L9.02431 7.19079L13.3139 3.06602Z" fill="#654222"/>
</svg>
