<svg width="21" height="18" viewBox="0 0 21 18" fill="none" xmlns="http://www.w3.org/2000/svg">
<path d="M9.54794 3.06287C10.0979 4.71265 9.5364 6.37781 8.29426 6.78545C7.05212 7.19309 5.59847 6.18553 5.04854 4.53575C4.49862 2.88597 5.06008 1.22081 6.30222 0.813176C7.54436 0.405539 8.99801 1.4131 9.54794 3.06287ZM4.69859 7.12771C5.42541 8.3737 5.24852 9.8235 4.30633 10.3619C3.36415 10.9003 2.01049 10.3273 1.28751 9.08129C0.564531 7.83531 0.733739 6.3855 1.67592 5.84711C2.6181 5.30872 3.97176 5.88172 4.69474 7.12771H4.69859ZM3.49875 14.919C5.51386 9.48508 9.09415 8.1045 10.6824 8.1045C12.2706 8.1045 15.8509 9.48508 17.866 14.919C18.0045 15.292 18.066 15.6919 18.066 16.0919V16.1534C18.066 17.1456 17.2623 17.9493 16.2701 17.9493C15.8279 17.9493 15.3895 17.8955 14.9626 17.7878L11.5784 16.9418C10.99 16.7956 10.3747 16.7956 9.78637 16.9418L6.40221 17.7878C5.97534 17.8955 5.53694 17.9493 5.09469 17.9493C4.10252 17.9493 3.29878 17.1456 3.29878 16.1534V16.0919C3.29878 15.6919 3.36031 15.292 3.49875 14.919ZM17.0585 10.3619C16.1163 9.8235 15.9394 8.3737 16.6662 7.12771C17.393 5.88172 18.7429 5.30872 19.685 5.84711C20.6272 6.3855 20.8041 7.83531 20.0773 9.08129C19.3505 10.3273 18.0006 10.9003 17.0585 10.3619ZM12.7629 6.78545C11.5207 6.37781 10.9593 4.71265 11.5092 3.06287C12.0591 1.4131 13.5128 0.405539 14.7549 0.813176C15.9971 1.22081 16.5585 2.88597 16.0086 4.53575C15.4587 6.18553 14.005 7.19309 12.7629 6.78545Z" fill="#9C9C9C"/>
</svg>
