<svg width="120" height="96" viewBox="0 0 120 96" fill="none" xmlns="http://www.w3.org/2000/svg">
<g clip-path="url(#clip0_192_1387)">
<path d="M9 0C4.03125 0 0 3.99526 0 8.91964V86.2232C0 91.1476 4.03125 95.1429 9 95.1429H27V80.2768C27 75.3524 31.0312 71.3571 36 71.3571C40.9688 71.3571 45 75.3524 45 80.2768V95.1429H63C65.8313 95.1429 68.3438 93.8607 69.9937 91.8352C63.825 85.8887 60 77.5823 60 68.3839C60 58.2192 64.6687 49.1509 72 43.1488V8.91964C72 3.99526 67.9688 0 63 0H9ZM12 44.5982C12 42.9629 13.35 41.625 15 41.625H21C22.65 41.625 24 42.9629 24 44.5982V50.5446C24 52.1799 22.65 53.5179 21 53.5179H15C13.35 53.5179 12 52.1799 12 50.5446V44.5982ZM33 41.625H39C40.65 41.625 42 42.9629 42 44.5982V50.5446C42 52.1799 40.65 53.5179 39 53.5179H33C31.35 53.5179 30 52.1799 30 50.5446V44.5982C30 42.9629 31.35 41.625 33 41.625ZM48 44.5982C48 42.9629 49.35 41.625 51 41.625H57C58.65 41.625 60 42.9629 60 44.5982V50.5446C60 52.1799 58.65 53.5179 57 53.5179H51C49.35 53.5179 48 52.1799 48 50.5446V44.5982ZM15 17.8393H21C22.65 17.8393 24 19.1772 24 20.8125V26.7589C24 28.3942 22.65 29.7321 21 29.7321H15C13.35 29.7321 12 28.3942 12 26.7589V20.8125C12 19.1772 13.35 17.8393 15 17.8393ZM30 20.8125C30 19.1772 31.35 17.8393 33 17.8393H39C40.65 17.8393 42 19.1772 42 20.8125V26.7589C42 28.3942 40.65 29.7321 39 29.7321H33C31.35 29.7321 30 28.3942 30 26.7589V20.8125ZM51 17.8393H57C58.65 17.8393 60 19.1772 60 20.8125V26.7589C60 28.3942 58.65 29.7321 57 29.7321H51C49.35 29.7321 48 28.3942 48 26.7589V20.8125C48 19.1772 49.35 17.8393 51 17.8393ZM120 68.3839C120 61.287 117.155 54.4808 112.092 49.4625C107.028 44.4442 100.161 41.625 93 41.625C85.8392 41.625 78.9716 44.4442 73.9081 49.4625C68.8446 54.4808 66 61.287 66 68.3839C66 75.4808 68.8446 82.2871 73.9081 87.3053C78.9716 92.3236 85.8392 95.1429 93 95.1429C100.161 95.1429 107.028 92.3236 112.092 87.3053C117.155 82.2871 120 75.4808 120 68.3839ZM105.619 60.3377C106.781 61.4898 106.781 63.3852 105.619 64.5373L92.1187 77.9168C90.9562 79.0689 89.0438 79.0689 87.8813 77.9168L80.3813 70.4838C79.2188 69.3316 79.2188 67.4362 80.3813 66.2841C81.5438 65.132 83.4562 65.132 84.6187 66.2841L90 71.6173L101.381 60.3377C102.544 59.1855 104.456 59.1855 105.619 60.3377Z" fill="#654222"/>
</g>
<defs>
<clipPath id="clip0_192_1387">
<rect width="120" height="95.1429" fill="white"/>
</clipPath>
</defs>
</svg>
