<svg width="19" height="18" viewBox="0 0 19 18" fill="none" xmlns="http://www.w3.org/2000/svg">
<path d="M9.66525 4.38503C7.09337 4.38503 5.01888 6.4455 5.01888 9C5.01888 11.5545 7.09337 13.615 9.66525 13.615C12.2371 13.615 14.3116 11.5545 14.3116 9C14.3116 6.4455 12.2371 4.38503 9.66525 4.38503ZM9.66525 12.0003C8.00323 12.0003 6.6445 10.6548 6.6445 9C6.6445 7.3452 7.99919 5.99967 9.66525 5.99967C11.3313 5.99967 12.686 7.3452 12.686 9C12.686 10.6548 11.3273 12.0003 9.66525 12.0003ZM15.5854 4.19625C15.5854 4.79471 15.1002 5.27268 14.5017 5.27268C13.8991 5.27268 13.4179 4.79069 13.4179 4.19625C13.4179 3.60181 13.9032 3.11983 14.5017 3.11983C15.1002 3.11983 15.5854 3.60181 15.5854 4.19625ZM18.6628 5.28874C18.594 3.84681 18.2624 2.56956 17.1989 1.51724C16.1394 0.464911 14.8535 0.135557 13.4018 0.0632601C11.9055 -0.0210867 7.42092 -0.0210867 5.9247 0.0632601C4.477 0.131541 3.19106 0.460895 2.12753 1.51322C1.06401 2.56555 0.736455 3.8428 0.663666 5.28473C0.578745 6.77084 0.578745 11.2251 0.663666 12.7113C0.732411 14.1532 1.06401 15.4304 2.12753 16.4828C3.19106 17.5351 4.47296 17.8644 5.9247 17.9367C7.42092 18.0211 11.9055 18.0211 13.4018 17.9367C14.8535 17.8685 16.1394 17.5391 17.1989 16.4828C18.2584 15.4304 18.59 14.1532 18.6628 12.7113C18.7477 11.2251 18.7477 6.77485 18.6628 5.28874ZM16.7298 14.3058C16.4144 15.093 15.8038 15.6995 15.0072 16.0168C13.8142 16.4868 10.9835 16.3783 9.66525 16.3783C8.34695 16.3783 5.51223 16.4828 4.32334 16.0168C3.53075 15.7036 2.92013 15.0971 2.60066 14.3058C2.12753 13.1209 2.23672 10.3094 2.23672 9C2.23672 7.69062 2.13158 4.87504 2.60066 3.69419C2.91608 2.90695 3.5267 2.30046 4.32334 1.98315C5.51627 1.51322 8.34695 1.62167 9.66525 1.62167C10.9835 1.62167 13.8183 1.51724 15.0072 1.98315C15.7997 2.29644 16.4104 2.90293 16.7298 3.69419C17.203 4.87906 17.0938 7.69062 17.0938 9C17.0938 10.3094 17.203 13.125 16.7298 14.3058Z" fill="white"/>
</svg>
