<svg width="40" height="34" viewBox="0 0 40 34" fill="none" xmlns="http://www.w3.org/2000/svg">
<path d="M17.6406 32.8924L17.4453 32.7146L3.75781 20.1338C1.35937 17.93 0 14.837 0 11.5971V11.3419C0 5.89823 3.90625 1.22779 9.3125 0.207102C12.3906 -0.380568 15.5391 0.32309 18.0469 2.07064C18.75 2.56552 19.4062 3.13772 20 3.79499C20.3281 3.42383 20.6797 3.0836 21.0547 2.76656C21.3438 2.51912 21.6406 2.28715 21.9531 2.07064C24.4609 0.32309 27.6094 -0.380568 30.6875 0.19937C36.0938 1.22006 40 5.89823 40 11.3419V11.5971C40 14.837 38.6406 17.93 36.2422 20.1338L22.5547 32.7146L22.3594 32.8924C21.7188 33.4801 20.875 33.8126 20 33.8126C19.125 33.8126 18.2812 33.4878 17.6406 32.8924ZM18.6797 7.90095C18.6484 7.87775 18.625 7.84682 18.6016 7.81589L17.2109 6.26939L17.2031 6.26166C15.3984 4.25894 12.6719 3.3465 10.0156 3.84911C6.375 4.53731 3.75 7.67671 3.75 11.3419V11.5971C3.75 13.8009 4.67969 15.9118 6.3125 17.4119L20 29.9927L33.6875 17.4119C35.3203 15.9118 36.25 13.8009 36.25 11.5971V11.3419C36.25 7.68444 33.625 4.53731 29.9922 3.84911C27.3359 3.3465 24.6016 4.26667 22.8047 6.26166C22.8047 6.26166 22.8047 6.26166 22.7969 6.26939C22.7891 6.27712 22.7969 6.26939 22.7891 6.27712L21.3984 7.82362C21.375 7.85455 21.3438 7.87775 21.3203 7.90868C20.9688 8.25665 20.4922 8.44996 20 8.44996C19.5078 8.44996 19.0312 8.25665 18.6797 7.90868V7.90095Z" fill="#9C9C9C"/>
</svg>
