<svg width="40" height="34" viewBox="0 0 40 34" fill="none" xmlns="http://www.w3.org/2000/svg">
<mask id="path-1-inside-1_536_223" fill="white">
<path d="M3.71875 20.0536L17.8359 33.1536C18.4219 33.6972 19.1953 34 20 34C20.8047 34 21.5781 33.6972 22.1641 33.1536L36.2812 20.0536C38.6562 17.8561 40 14.7733 40 11.5507V11.1003C40 5.67243 36.0547 1.04435 30.6719 0.151352C27.1094 -0.438805 23.4844 0.718215 20.9375 3.24968L20 4.18151L19.0625 3.24968C16.5156 0.718215 12.8906 -0.438805 9.32812 0.151352C3.94531 1.04435 0 5.67243 0 11.1003V11.5507C0 14.7733 1.34375 17.8561 3.71875 20.0536Z"/>
</mask>
<path d="M3.71875 20.0536L17.8359 33.1536C18.4219 33.6972 19.1953 34 20 34C20.8047 34 21.5781 33.6972 22.1641 33.1536L36.2812 20.0536C38.6562 17.8561 40 14.7733 40 11.5507V11.1003C40 5.67243 36.0547 1.04435 30.6719 0.151352C27.1094 -0.438805 23.4844 0.718215 20.9375 3.24968L20 4.18151L19.0625 3.24968C16.5156 0.718215 12.8906 -0.438805 9.32812 0.151352C3.94531 1.04435 0 5.67243 0 11.1003V11.5507C0 14.7733 1.34375 17.8561 3.71875 20.0536Z" fill="black" fill-opacity="0.5" stroke="white" stroke-width="6" mask="url(#path-1-inside-1_536_223)"/>
</svg>
