<svg width="40" height="35" viewBox="0 0 40 35" fill="none" xmlns="http://www.w3.org/2000/svg">
<path d="M3.71875 20.1757L17.8359 33.3554C18.4219 33.9023 19.1953 34.207 20 34.207C20.8047 34.207 21.5781 33.9023 22.1641 33.3554L36.2812 20.1757C38.6562 17.9648 40 14.8632 40 11.621V11.1679C40 5.70696 36.0547 1.05071 30.6719 0.152274C27.1094 -0.441476 23.4844 0.722587 20.9375 3.26946L20 4.20696L19.0625 3.26946C16.5156 0.722587 12.8906 -0.441476 9.32812 0.152274C3.94531 1.05071 0 5.70696 0 11.1679V11.621C0 14.8632 1.34375 17.9648 3.71875 20.1757Z" fill="#E05353"/>
</svg>
