<svg width="179" height="42" viewBox="0 0 179 42" fill="none" xmlns="http://www.w3.org/2000/svg">
<path d="M25.315 40.8399H30.995C30.995 40.8399 32.305 38.6599 28.375 38.6599C27.7342 37.4529 27.4335 36.0945 27.505 34.7299C27.4335 33.3653 27.7342 32.0069 28.375 30.7999C28.375 30.7999 31.865 25.1199 31.865 21.6299V11.6299C31.865 11.6299 31.865 10.7499 33.175 10.3199C34.485 9.8899 36.675 8.1299 36.675 5.9499C36.6256 4.45456 36.3283 2.97779 35.795 1.5799C35.795 1.5799 32.795 3.3299 30.125 2.8899C27.455 2.4499 23.125 1.5799 20.515 5.0799C17.905 8.5799 18.335 11.6299 21.825 12.9399C25.315 14.2499 24.885 3.3299 22.265 1.1499" stroke="#654222" stroke-width="1.2" stroke-linecap="round" stroke-linejoin="round"/>
<path d="M23.3551 14.8599C21.853 17.6321 19.5773 19.9078 16.8051 21.4099C12.4351 23.5899 3.70507 35.4099 11.1251 41.0599H22.0451C22.0451 41.0599 22.4851 38.4399 17.6751 38.4399C17.6751 38.4399 23.3551 36.2599 23.3551 34.0699C23.3722 33.3966 23.2448 32.7274 22.9814 32.1076C22.718 31.4878 22.3247 30.9316 21.8281 30.4767C21.3314 30.0217 20.743 29.6786 20.1025 29.4704C19.462 29.2623 18.7843 29.1939 18.1151 29.2699C14.6251 29.7099 11.5651 34.9499 11.5651 34.9499C11.5651 34.9499 8.50507 40.1899 4.99507 40.1899C1.48507 40.1899 -0.224932 35.3799 1.99507 30.5799" stroke="#654222" stroke-width="1.2" stroke-linecap="round" stroke-linejoin="round"/>
<path d="M30.5949 26.4702C30.5949 26.4702 32.9949 31.8902 35.9949 31.8902C38.9949 31.8902 38.1849 34.5102 38.1849 34.5102H33.3949L28.7749 30.1202" stroke="#654222" stroke-width="1.2" stroke-linecap="round" stroke-linejoin="round"/>
<path d="M35.7151 40.44C36.9412 40.44 37.9351 39.4461 37.9351 38.22C37.9351 36.9939 36.9412 36 35.7151 36C34.489 36 33.4951 36.9939 33.4951 38.22C33.4951 39.4461 34.489 40.44 35.7151 40.44Z" stroke="#654222" stroke-width="1.2" stroke-linecap="round" stroke-linejoin="round"/>
<path d="M27.0649 5.91016C27.1173 5.67834 27.2161 5.45953 27.3554 5.26693C27.4946 5.07433 27.6714 4.91192 27.8751 4.78951C28.0788 4.6671 28.3052 4.58721 28.5407 4.55466C28.7761 4.52212 29.0157 4.5376 29.2449 4.60016" stroke="#654222" stroke-width="1.2" stroke-linecap="round" stroke-linejoin="round"/>
<path d="M53.8853 13.4138H56.5957V21.5688H65.4727V13.4138H68.2187V32.2212H65.4727V23.9952H56.5957V32.2212H53.8853V13.4138Z" fill="#654222"/>
<path d="M78.5276 32.4467C73.8642 32.4467 70.4673 28.7894 70.4673 22.8004C70.4673 16.8114 73.8642 13.1541 78.5276 13.1541C83.191 13.1541 86.5524 16.8351 86.5524 22.7531C86.5524 28.6711 83.1318 32.4467 78.5276 32.4467ZM78.5276 15.7698C75.4384 15.7698 73.1541 18.2317 73.1541 22.8004C73.1541 27.3691 75.4384 29.8547 78.5276 29.8547C81.6168 29.8547 83.8656 27.3928 83.8656 22.8241C83.8656 18.2554 81.5813 15.7698 78.5276 15.7698Z" fill="#654222"/>
<path d="M87.1558 13.4138H100.98V15.8757H95.441V32.2212H92.7424V15.8757H87.1558V13.4138Z" fill="#654222"/>
<path d="M103.016 13.4138H114.201V15.8757H105.727V21.5688H113.609V24.007H105.727V29.7357H114.296V32.2212H103.016V13.4138Z" fill="#654222"/>
<path d="M116.746 13.4138H119.457V29.7238H127.505V32.2212H116.746V13.4138Z" fill="#654222"/>
<path d="M129.553 32.2212V13.4138H135.471C140.726 13.4138 143.874 16.9646 143.874 22.7761C143.874 28.5876 140.726 32.2449 135.305 32.2449L129.553 32.2212ZM135.187 29.7357C139.235 29.7357 141.223 27.2383 141.223 22.8116C141.223 18.3849 139.235 15.9349 135.305 15.9349H132.228V29.7002L135.187 29.7357Z" fill="#654222"/>
<path d="M153.663 32.4467C149.011 32.4467 145.614 28.7894 145.614 22.8004C145.614 16.8114 149.011 13.1541 153.663 13.1541C158.314 13.1541 161.723 16.8351 161.723 22.7531C161.723 28.6711 158.267 32.4467 153.663 32.4467ZM153.663 15.7698C150.585 15.7698 148.301 18.2317 148.301 22.8004C148.301 27.3691 150.585 29.8547 153.663 29.8547C156.74 29.8547 159.013 27.3928 159.013 22.8241C159.013 18.2554 156.716 15.7698 153.663 15.7698Z" fill="#654222"/>
<path d="M171.405 15.7695C168.399 15.7695 166.079 18.2669 166.079 22.8C166.079 27.3332 168.375 29.8306 171.523 29.8306C172.166 29.8538 172.806 29.7416 173.402 29.5013C173.998 29.261 174.536 28.898 174.983 28.4358C175.429 27.9737 175.774 27.4228 175.993 26.8188C176.213 26.2149 176.303 25.5716 176.258 24.9305H171.867V22.5633H178.885V24.6938C178.885 29.4282 175.784 32.4464 171.452 32.4464C166.623 32.4464 163.345 28.7417 163.345 22.8C163.345 16.8584 166.718 13.1537 171.334 13.1537C173.116 13.1042 174.855 13.7071 176.223 14.8492C177.592 15.9912 178.497 17.5938 178.767 19.3558H175.986C175.751 18.3221 175.168 17.4009 174.333 16.7475C173.499 16.0942 172.465 15.7487 171.405 15.7695Z" fill="#654222"/>
</svg>
