<svg width="20" height="18" viewBox="0 0 20 18" fill="none" xmlns="http://www.w3.org/2000/svg">
<rect width="20" height="18" fill="#F5F5F5"/>
<g id="&#236;&#131;&#129;&#236;&#132;&#184; &#237;&#142;&#152;&#236;&#157;&#180;&#236;&#167;&#128;" clip-path="url(#clip0_116_2520)">
<rect width="1920" height="1080" transform="translate(-1190 -461)" fill="white"/>
<g id="Group 812">
<g id="Rectangle 150" filter="url(#filter0_d_116_2520)">
<rect x="-50" y="-215" width="420" height="692" rx="10" fill="white"/>
</g>
<g id="Group 811">
<g id="Group 743">
<path id="Vector" d="M8.8473 2.44527C9.40602 4.16911 8.83558 5.90902 7.57358 6.33496C6.31159 6.7609 4.8347 5.70811 4.27598 3.98427C3.71726 2.26043 4.2877 0.520521 5.5497 0.0945837C6.8117 -0.331353 8.28859 0.721434 8.8473 2.44527ZM3.92043 6.69259C4.65888 7.99451 4.47915 9.50939 3.52191 10.072C2.56466 10.6345 1.18936 10.0358 0.454824 8.73387C-0.279714 7.43195 -0.107801 5.91706 0.849442 5.3545C1.80668 4.79194 3.18199 5.39067 3.91653 6.69259H3.92043ZM2.70141 14.8336C4.74874 9.15579 8.38626 7.71323 9.9999 7.71323C11.6135 7.71323 15.2511 9.15579 17.2984 14.8336C17.439 15.2234 17.5016 15.6413 17.5016 16.0592V16.1235C17.5016 17.1602 16.685 18 15.6769 18C15.2276 18 14.7822 17.9437 14.3485 17.8312L10.9103 16.9472C10.3125 16.7945 9.68733 16.7945 9.08954 16.9472L5.65128 17.8312C5.21759 17.9437 4.77218 18 4.32287 18C3.31483 18 2.49824 17.1602 2.49824 16.1235V16.0592C2.49824 15.6413 2.56076 15.2234 2.70141 14.8336ZM16.4779 10.072C15.5207 9.50939 15.3409 7.99451 16.0794 6.69259C16.8178 5.39067 18.1892 4.79194 19.1465 5.3545C20.1037 5.91706 20.2834 7.43195 19.545 8.73387C18.8065 10.0358 17.4351 10.6345 16.4779 10.072ZM12.1136 6.33496C10.8517 5.90902 10.2812 4.16911 10.8399 2.44527C11.3986 0.721434 12.8755 -0.331353 14.1375 0.0945837C15.3995 0.520521 15.97 2.26043 15.4113 3.98427C14.8525 5.70811 13.3756 6.7609 12.1136 6.33496Z" fill="#654222"/>
</g>
</g>
</g>
</g>
<defs>
<filter id="filter0_d_116_2520" x="-60" y="-225" width="440" height="712" filterUnits="userSpaceOnUse" color-interpolation-filters="sRGB">
<feFlood flood-opacity="0" result="BackgroundImageFix"/>
<feColorMatrix in="SourceAlpha" type="matrix" values="0 0 0 0 0 0 0 0 0 0 0 0 0 0 0 0 0 0 127 0" result="hardAlpha"/>
<feOffset/>
<feGaussianBlur stdDeviation="5"/>
<feComposite in2="hardAlpha" operator="out"/>
<feColorMatrix type="matrix" values="0 0 0 0 0.396078 0 0 0 0 0.258824 0 0 0 0 0.133333 0 0 0 0.25 0"/>
<feBlend mode="normal" in2="BackgroundImageFix" result="effect1_dropShadow_116_2520"/>
<feBlend mode="normal" in="SourceGraphic" in2="effect1_dropShadow_116_2520" result="shape"/>
</filter>
<clipPath id="clip0_116_2520">
<rect width="1920" height="1080" fill="white" transform="translate(-1190 -461)"/>
</clipPath>
</defs>
</svg>
