<svg width="22" height="18" viewBox="0 0 22 18" fill="none" xmlns="http://www.w3.org/2000/svg">
<path d="M19.7093 4.4881C19.722 4.68286 19.722 4.88194 19.722 5.0767C19.722 11.0796 15.2605 18 7.10639 18C4.59257 18 2.26041 17.2556 0.300049 15.9615C0.654942 16.0048 1.00139 16.0178 1.36895 16.0178C3.44339 16.0178 5.34883 15.2994 6.87402 14.0789C4.92633 14.0356 3.29129 12.7285 2.72938 10.9281C3.004 10.9714 3.27862 10.9974 3.56591 10.9974C3.96305 10.9974 4.36019 10.9411 4.73199 10.8415C2.6998 10.4217 1.17883 8.59101 1.17883 6.38375V6.32748C1.77032 6.66506 2.45476 6.87713 3.18144 6.9031C1.98579 6.08945 1.20418 4.69584 1.20418 3.12046C1.20418 2.27651 1.42388 1.5018 1.80834 0.826641C3.99263 3.58355 7.27116 5.38399 10.9511 5.57874C10.8835 5.24116 10.8412 4.8906 10.8412 4.54003C10.8412 2.03847 12.8185 0 15.2732 0C16.5491 0 17.7025 0.549651 18.5137 1.43256C19.515 1.2378 20.4783 0.856937 21.3275 0.337581C20.9979 1.3936 20.2966 2.27651 19.3798 2.83914C20.2712 2.7396 21.1373 2.48858 21.9316 2.13801C21.3275 3.03823 20.5712 3.8389 19.7093 4.4881Z" fill="white"/>
</svg>
