<svg width="23" height="17" viewBox="0 0 23 17" fill="none" xmlns="http://www.w3.org/2000/svg">
<path d="M22.4191 3.36506C22.162 2.39299 21.4073 1.6301 20.4485 1.3717C18.7105 0.900024 11.7421 0.900024 11.7421 0.900024C11.7421 0.900024 4.77367 0.900024 3.03565 1.3717C2.07689 1.6301 1.32211 2.39299 1.06508 3.36506C0.599976 5.12463 0.599976 8.79143 0.599976 8.79143C0.599976 8.79143 0.599976 12.4582 1.06508 14.2178C1.32211 15.1899 2.07689 15.9199 3.03565 16.1783C4.77367 16.65 11.7421 16.65 11.7421 16.65C11.7421 16.65 18.7105 16.65 20.4485 16.1783C21.4073 15.9199 22.162 15.1858 22.4191 14.2178C22.8842 12.4582 22.8842 8.79143 22.8842 8.79143C22.8842 8.79143 22.8842 5.12463 22.4191 3.36506ZM9.46551 12.1219V5.46096L15.2875 8.79143L9.46551 12.1219Z" fill="white"/>
</svg>
