<svg width="21" height="20" viewBox="0 0 21 20" fill="none" xmlns="http://www.w3.org/2000/svg">
<path d="M3.23336 2.14286C2.84051 2.14286 2.51908 2.46429 2.51908 2.85714V17.1429C2.51908 17.5357 2.84051 17.8571 3.23336 17.8571H17.5191C17.9119 17.8571 18.2334 17.5357 18.2334 17.1429V2.85714C18.2334 2.46429 17.9119 2.14286 17.5191 2.14286H3.23336ZM0.376221 2.85714C0.376221 1.28125 1.65747 0 3.23336 0H17.5191C19.095 0 20.3762 1.28125 20.3762 2.85714V17.1429C20.3762 18.7188 19.095 20 17.5191 20H3.23336C1.65747 20 0.376221 18.7188 0.376221 17.1429V2.85714ZM7.16194 8.92857H13.5905C14.1843 8.92857 14.6619 9.40625 14.6619 10C14.6619 10.5938 14.1843 11.0714 13.5905 11.0714H7.16194C6.56819 11.0714 6.09051 10.5938 6.09051 10C6.09051 9.40625 6.56819 8.92857 7.16194 8.92857Z" fill="#654222"/>
</svg>
