<svg width="21" height="19" viewBox="0 0 21 19" fill="none" xmlns="http://www.w3.org/2000/svg">
<path d="M11.6425 0.667894C11.4317 0.259737 10.9863 0 10.4971 0C10.008 0 9.56656 0.259737 9.35181 0.667894L6.7947 5.57691L1.08395 6.36355C0.606726 6.43034 0.209041 6.74202 0.0618974 7.16873C-0.0852459 7.59544 0.0340594 8.06668 0.376068 8.38207L4.51994 12.2076L3.54164 17.6138C3.4621 18.0591 3.66094 18.5118 4.05465 18.7752C4.44836 19.0387 4.96933 19.0721 5.39883 18.8606L10.5011 16.3189L15.6034 18.8606C16.0329 19.0721 16.5539 19.0424 16.9476 18.7752C17.3413 18.5081 17.5401 18.0591 17.4606 17.6138L16.4783 12.2076L20.6222 8.38207C20.9642 8.06668 21.0875 7.59544 20.9364 7.16873C20.7852 6.74202 20.3915 6.43034 19.9143 6.36355L14.1996 5.57691L11.6425 0.667894Z" fill="#E5B300"/>
</svg>
