<svg width="50" height="43" viewBox="0 0 50 43" fill="none" xmlns="http://www.w3.org/2000/svg">
<path d="M4.64844 25.2777L22.2949 41.7902C23.0273 42.4754 23.9941 42.8571 25 42.8571C26.0059 42.8571 26.9727 42.4754 27.7051 41.7902L45.3516 25.2777C48.3203 22.5077 50 18.6218 50 14.5597V13.992C50 7.15013 45.0684 1.31641 38.3398 0.19078C33.8867 -0.553116 29.3555 0.905313 26.1719 4.09624L25 5.27081L23.8281 4.09624C20.6445 0.905313 16.1133 -0.553116 11.6602 0.19078C4.93164 1.31641 0 7.15013 0 13.992V14.5597C0 18.6218 1.67969 22.5077 4.64844 25.2777Z" fill="white"/>
</svg>
