<svg width="576" height="512" viewBox="0 0 576 512" fill="none" xmlns="http://www.w3.org/2000/svg">
<g clip-path="url(#clip0_1469_12098)">
<path d="M96 64C96 28.7 124.7 0 160 0H416C451.3 0 480 28.7 480 64V448H544C561.7 448 576 462.3 576 480C576 497.7 561.7 512 544 512H432H144H32C14.3 512 0 497.7 0 480C0 462.3 14.3 448 32 448H96V64ZM384 288C392.487 288 400.626 284.629 406.627 278.627C412.629 272.626 416 264.487 416 256C416 247.513 412.629 239.374 406.627 233.373C400.626 227.371 392.487 224 384 224C375.513 224 367.374 227.371 361.373 233.373C355.371 239.374 352 247.513 352 256C352 264.487 355.371 272.626 361.373 278.627C367.374 284.629 375.513 288 384 288Z" fill="#323232"/>
</g>
<defs>
<clipPath id="clip0_1469_12098">
<rect width="576" height="512" fill="white"/>
</clipPath>
</defs>
</svg>
