<svg width="51" height="68" viewBox="0 0 51 68" fill="none" xmlns="http://www.w3.org/2000/svg">
<path d="M1.85938 0.292156C2.98828 -0.225813 4.31641 -0.0398756 5.25937 0.770281L10.625 5.36559L15.9906 0.770281C17.1859 -0.252376 18.9523 -0.252376 20.1344 0.770281L25.5 5.36559L30.8656 0.770281C32.0609 -0.252376 33.8273 -0.252376 35.0094 0.770281L40.375 5.36559L45.7406 0.770281C46.6836 -0.0398756 48.0117 -0.225813 49.1406 0.292156C50.2695 0.810124 51 1.93903 51 3.18747V64.8125C51 66.0609 50.2695 67.1898 49.1406 67.7078C48.0117 68.2257 46.6836 68.0398 45.7406 67.2297L40.375 62.6343L35.0094 67.2297C33.8141 68.2523 32.0477 68.2523 30.8656 67.2297L25.5 62.6343L20.1344 67.2297C18.9391 68.2523 17.1727 68.2523 15.9906 67.2297L10.625 62.6343L5.25937 67.2297C4.31641 68.0398 2.98828 68.2257 1.85938 67.7078C0.730469 67.1898 0 66.0609 0 64.8125V3.18747C0 1.93903 0.730469 0.810124 1.85938 0.292156ZM12.75 19.125C11.5813 19.125 10.625 20.0812 10.625 21.25C10.625 22.4187 11.5813 23.375 12.75 23.375H38.25C39.4188 23.375 40.375 22.4187 40.375 21.25C40.375 20.0812 39.4188 19.125 38.25 19.125H12.75ZM10.625 46.75C10.625 47.9187 11.5813 48.875 12.75 48.875H38.25C39.4188 48.875 40.375 47.9187 40.375 46.75C40.375 45.5812 39.4188 44.625 38.25 44.625H12.75C11.5813 44.625 10.625 45.5812 10.625 46.75ZM12.75 31.875C11.5813 31.875 10.625 32.8312 10.625 34C10.625 35.1687 11.5813 36.125 12.75 36.125H38.25C39.4188 36.125 40.375 35.1687 40.375 34C40.375 32.8312 39.4188 31.875 38.25 31.875H12.75Z" fill="#D9D9D9"/>
</svg>
