<svg width="14" height="14" viewBox="0 0 14 14" fill="none" xmlns="http://www.w3.org/2000/svg">
<path d="M12.9214 3.06602C13.4486 2.55902 13.465 1.72342 12.958 1.19615C12.451 0.66888 11.6154 0.652508 11.0881 1.15951L6.79849 5.28429L2.67372 0.994644C2.16672 0.467376 1.33112 0.451003 0.803851 0.958007C0.276582 1.46501 0.26021 2.30061 0.767213 2.82788L4.89199 7.11752L0.602344 11.2423C0.0750756 11.7493 0.0587044 12.5849 0.565708 13.1122C1.07271 13.6394 1.90831 13.6558 2.43558 13.1488L6.72522 9.02403L10.85 13.3137C11.357 13.8409 12.1926 13.8573 12.7199 13.3503C13.2471 12.8433 13.2635 12.0077 12.7565 11.4804L8.63173 7.19079L12.9214 3.06602Z" fill="#654222"/>
</svg>
