<svg width="70" height="61" viewBox="0 0 70 61" fill="none" xmlns="http://www.w3.org/2000/svg">
<path d="M30.9656 8.28676C32.9211 14.1287 30.9245 20.025 26.5075 21.4685C22.0906 22.9119 16.9214 19.3441 14.9659 13.5022C13.0104 7.66035 15.007 1.76399 19.424 0.320534C23.8409 -1.12292 29.0101 2.44486 30.9656 8.28676ZM13.7215 22.6804C16.3061 27.0925 15.677 32.2263 12.3267 34.1327C8.97633 36.0392 4.16276 34.0102 1.59188 29.5981C-0.978997 25.186 -0.377302 20.0523 2.97305 18.1458C6.3234 16.2394 11.137 18.2684 13.7078 22.6804H13.7215ZM9.45495 50.2694C16.6206 31.0279 29.3519 26.1393 34.9997 26.1393C40.6474 26.1393 53.3787 31.0279 60.5444 50.2694C61.0367 51.5903 61.2555 53.0065 61.2555 54.4228V54.6406C61.2555 58.1539 58.3974 61 54.8693 61C53.2967 61 51.7377 60.8094 50.2198 60.4281L38.1859 57.4322C36.0936 56.9148 33.9057 56.9148 31.8134 57.4322L19.7795 60.4281C18.2616 60.8094 16.7026 61 15.13 61C11.6019 61 8.74385 58.1539 8.74385 54.6406V54.4228C8.74385 53.0065 8.96265 51.5903 9.45495 50.2694ZM57.6726 34.1327C54.3223 32.2263 53.6932 27.0925 56.2778 22.6804C58.8624 18.2684 63.6622 16.2394 67.0126 18.1458C70.3629 20.0523 70.992 25.186 68.4074 29.5981C65.8229 34.0102 61.023 36.0392 57.6726 34.1327ZM42.3978 21.4685C37.9808 20.025 35.9842 14.1287 37.9398 8.28676C39.8953 2.44486 45.0644 -1.12292 49.4814 0.320534C53.8984 1.76399 55.8949 7.66035 53.9394 13.5022C51.9839 19.3441 46.8148 22.9119 42.3978 21.4685Z" fill="#D9D9D9"/>
</svg>
