<svg width="380" height="293" viewBox="0 0 380 293" fill="none" xmlns="http://www.w3.org/2000/svg">
<rect width="380" height="293" rx="10" fill="#EEEEEE"/>
<path d="M122.908 140.504L124.132 140.496L124.151 143.412C124.175 147.011 122.254 150.534 119.689 151.919L118.763 150.737C121.113 149.534 122.947 146.39 122.927 143.42L122.908 140.504ZM123.178 140.502L124.384 140.494L124.403 143.41C124.422 146.272 126.26 149.23 128.571 150.367L127.661 151.561C125.132 150.227 123.22 146.91 123.197 143.418L123.178 140.502ZM129.918 139.053L131.43 139.043L131.538 155.315L130.026 155.325L129.918 139.053ZM131.114 145.634L134.138 145.614L134.146 146.874L131.122 146.894L131.114 145.634ZM139.811 140.77L141.053 140.762L141.063 142.418C141.083 145.406 139.264 147.92 136.534 148.928L135.753 147.745C138.195 146.865 139.837 144.748 139.821 142.426L139.811 140.77ZM140.099 140.768L141.341 140.76L141.351 142.416C141.366 144.612 143.071 146.581 145.488 147.375L144.722 148.55C142.016 147.65 140.128 145.286 140.109 142.424L140.099 140.768ZM136.1 140.363L145.01 140.304L145.018 141.51L136.108 141.569L136.1 140.363ZM147.305 138.957L148.817 138.947L148.895 150.844L147.383 150.854L147.305 138.957ZM138.456 153.685L149.4 153.613L149.408 154.837L138.464 154.909L138.456 153.685ZM138.43 149.797L139.906 149.788L139.935 154.216L138.459 154.225L138.43 149.797ZM159.383 139.129C162.965 139.105 165.113 140.099 165.125 141.917C165.137 143.735 163.002 144.757 159.42 144.781C155.82 144.805 153.69 143.811 153.678 141.993C153.666 140.175 155.783 139.153 159.383 139.129ZM159.39 140.263C156.726 140.28 155.2 140.903 155.207 141.982C155.215 143.062 156.749 143.664 159.413 143.647C162.059 143.629 163.584 143.007 163.577 141.927C163.57 140.847 162.036 140.245 159.39 140.263ZM152.065 145.909L166.771 145.812L166.779 147.018L152.073 147.115L152.065 145.909ZM153.864 148.49L164.916 148.417L164.94 152.088L155.401 152.151L155.414 154.131L153.938 154.141L153.918 151.081L163.457 151.018L163.448 149.578L153.872 149.641L153.864 148.49ZM153.936 153.817L165.437 153.741L165.445 154.911L153.943 154.987L153.936 153.817ZM180.332 149.071L181.808 149.061L181.847 155.001L180.371 155.011L180.332 149.071ZM173.723 148.592L188.428 148.495L188.437 149.737L173.731 149.834L173.723 148.592ZM180.264 141.511L181.578 141.502L181.581 141.916C181.599 144.724 178.571 146.814 175.155 147.359L174.625 146.174C177.556 145.759 180.28 143.959 180.267 141.925L180.264 141.511ZM180.462 141.51L181.758 141.501L181.761 141.915C181.774 143.931 184.54 145.713 187.458 146.09L186.926 147.281C183.521 146.8 180.483 144.696 180.465 141.924L180.462 141.51ZM175.093 140.753L186.955 140.675L186.963 141.899L175.101 141.977L175.093 140.753ZM180.264 138.721L181.74 138.711L181.756 141.141L180.28 141.151L180.264 138.721ZM201.214 138.565L202.726 138.555L202.833 154.844L201.321 154.854L201.214 138.565ZM202.355 145.163L205.361 145.143L205.369 146.385L202.363 146.405L202.355 145.163ZM197.067 140.356L198.525 140.346C198.556 144.972 196.459 149.162 191.221 151.843L190.385 150.696C194.87 148.381 197.097 144.892 197.069 140.59L197.067 140.356ZM191.073 140.396L197.841 140.351L197.849 141.575L191.082 141.62L191.073 140.396ZM217.79 138.473L219.284 138.463L219.391 154.735L217.897 154.745L217.79 138.473ZM218.968 145.144L221.992 145.124L222 146.384L218.976 146.404L218.968 145.144ZM206.701 141.139L216.295 141.075L216.303 142.299L206.709 142.362L206.701 141.139ZM211.578 143.68C213.882 143.665 215.548 145.202 215.563 147.398C215.577 149.594 213.932 151.153 211.628 151.168C209.342 151.183 207.658 149.646 207.643 147.45C207.629 145.254 209.292 143.695 211.578 143.68ZM211.586 144.922C210.11 144.932 209.055 145.965 209.065 147.441C209.075 148.899 210.143 149.936 211.619 149.926C213.095 149.917 214.15 148.866 214.141 147.408C214.131 145.932 213.062 144.913 211.586 144.922ZM210.771 138.718L212.265 138.708L212.285 141.66L210.791 141.67L210.771 138.718ZM229.779 144.208L232.893 144.188L232.901 145.43L229.787 145.45L229.779 144.208ZM226.708 139.944L227.878 139.937L227.899 143.033C227.921 146.435 226.521 149.738 224.155 151.212L223.211 150.084C225.435 148.755 226.747 145.83 226.729 143.04L226.708 139.944ZM226.996 139.943L228.148 139.935L228.169 142.977C228.186 145.587 229.428 148.351 231.579 149.632L230.722 150.808C228.373 149.384 227.037 146.152 227.017 142.984L226.996 139.943ZM235.716 138.355L237.156 138.345L237.264 154.617L235.824 154.627L235.716 138.355ZM232.425 138.719L233.828 138.709L233.928 153.829L232.524 153.838L232.425 138.719ZM243.546 146.673L245.022 146.664L245.054 151.542L243.578 151.551L243.546 146.673ZM249.558 146.634L251.052 146.624L251.084 151.502L249.59 151.512L249.558 146.634ZM239.976 151.287L254.718 151.19L254.726 152.432L239.984 152.529L239.976 151.287ZM247.241 139.305C250.679 139.282 253.156 140.904 253.173 143.46C253.19 145.998 250.734 147.652 247.297 147.675C243.841 147.697 241.364 146.076 241.347 143.538C241.33 140.982 243.785 139.328 247.241 139.305ZM247.249 140.493C244.639 140.51 242.775 141.71 242.787 143.528C242.799 145.328 244.679 146.504 247.289 146.487C249.899 146.469 251.745 145.269 251.733 143.469C251.721 141.651 249.859 140.476 247.249 140.493ZM258.128 153.178C257.812 153.18 257.541 153.068 257.314 152.844C257.086 152.62 256.972 152.35 256.97 152.035C256.968 151.719 257.079 151.448 257.303 151.221C257.527 150.993 257.797 150.879 258.113 150.876C258.428 150.874 258.699 150.986 258.927 151.21C259.154 151.434 259.269 151.704 259.271 152.019C259.272 152.228 259.22 152.42 259.115 152.596C259.014 152.771 258.876 152.913 258.702 153.02C258.532 153.124 258.341 153.176 258.128 153.178Z" fill="#9C9C9C"/>
</svg>
