<svg width="72" height="61" viewBox="0 0 72 61" fill="none" xmlns="http://www.w3.org/2000/svg">
<path d="M6.69375 35.9786L32.1047 59.4814C33.1594 60.4567 34.5516 61 36 61C37.4484 61 38.8406 60.4567 39.8953 59.4814L65.3063 35.9786C69.5812 32.0359 72 26.505 72 20.7233V19.9153C72 10.177 64.8984 1.87369 55.2094 0.271544C48.7969 -0.787268 42.2719 1.28856 37.6875 5.83031L36 7.50212L34.3125 5.83031C29.7281 1.28856 23.2031 -0.787268 16.7906 0.271544C7.10156 1.87369 0 10.177 0 19.9153V20.7233C0 26.505 2.41875 32.0359 6.69375 35.9786Z" fill="#D9D9D9"/>
</svg>
