<svg width="28" height="28" viewBox="0 0 28 28" fill="none" xmlns="http://www.w3.org/2000/svg">
<rect x="0.50329" y="0.680038" width="26.7715" height="26.7715" rx="4.5" transform="rotate(-0.378259 0.50329 0.680038)" stroke="#654222"/>
<g clip-path="url(#clip0_368_1637)">
<path d="M15.255 7.09166C15.2502 6.3602 14.6553 5.77314 13.9239 5.77797C13.1924 5.7828 12.6054 6.37766 12.6102 7.10912L12.6495 13.06L6.69857 13.0993C5.9671 13.1041 5.38004 13.699 5.38487 14.4305C5.3897 15.1619 5.98456 15.749 6.71603 15.7442L12.6669 15.7049L12.7062 21.6558C12.711 22.3872 13.3059 22.9743 14.0374 22.9695C14.7688 22.9646 15.3559 22.3698 15.3511 21.6383L15.3118 15.6874L21.2627 15.6481C21.9941 15.6433 22.5812 15.0484 22.5764 14.317C22.5715 13.5855 21.9767 12.9984 21.2452 13.0033L15.2943 13.0426L15.255 7.09166Z" fill="#654222"/>
<path d="M14.8527 7.40782C14.8479 6.67636 14.253 6.0893 13.5215 6.09413C12.7901 6.09896 12.203 6.69382 12.2078 7.42528L12.2471 13.3762L6.29622 13.4155C5.56476 13.4203 4.9777 14.0152 4.98253 14.7466C4.98736 15.4781 5.58222 16.0651 6.31368 16.0603L12.2646 16.021L12.3039 21.9719C12.3087 22.7034 12.9036 23.2905 13.635 23.2856C14.3665 23.2808 14.9535 22.6859 14.9487 21.9545L14.9094 16.0036L20.8603 15.9643C21.5918 15.9595 22.1789 15.3646 22.174 14.6331C22.1692 13.9017 21.5743 13.3146 20.8429 13.3194L14.892 13.3587L14.8527 7.40782Z" fill="#654222"/>
</g>
<defs>
<clipPath id="clip0_368_1637">
<rect width="18.5143" height="21.1592" fill="white" transform="translate(4.65332 3.85547) rotate(-0.378259)"/>
</clipPath>
</defs>
</svg>
