<svg width="69" height="61" viewBox="0 0 69 61" fill="none" xmlns="http://www.w3.org/2000/svg">
<path d="M34.5035 56.6302C53.5574 56.6302 69 43.9565 69 28.3151C69 12.6737 53.5574 0 34.5035 0C15.4496 0 0.00700087 12.6737 0.00700087 28.3151C0.00700087 34.4546 2.39211 40.1312 6.43467 44.7733C6.17864 48.1085 4.8985 51.0761 3.55098 53.3359C2.80984 54.5883 2.05523 55.5956 1.50275 56.2763C1.21977 56.6166 1.00417 56.8753 0.842463 57.0522C0.761612 57.1339 0.707711 57.202 0.667286 57.2428L0.62686 57.2836C0.00700088 57.9098 -0.168177 58.8355 0.168703 59.6523C0.505583 60.4691 1.28714 61 2.16303 61C6.03041 61 9.92475 59.7884 13.1588 58.3727C16.2446 57.0114 18.8723 55.3914 20.4758 54.2071C24.7609 55.7726 29.5042 56.6438 34.5035 56.6438V56.6302ZM17.2553 23.9589C18.3989 23.9589 19.4957 24.4179 20.3043 25.2348C21.113 26.0518 21.5673 27.1598 21.5673 28.3151C21.5673 29.4704 21.113 30.5784 20.3043 31.3954C19.4957 32.2123 18.3989 32.6713 17.2553 32.6713C16.1116 32.6713 15.0148 32.2123 14.2062 31.3954C13.3975 30.5784 12.9432 29.4704 12.9432 28.3151C12.9432 27.1598 13.3975 26.0518 14.2062 25.2348C15.0148 24.4179 16.1116 23.9589 17.2553 23.9589ZM34.5035 23.9589C35.6471 23.9589 36.7439 24.4179 37.5526 25.2348C38.3613 26.0518 38.8156 27.1598 38.8156 28.3151C38.8156 29.4704 38.3613 30.5784 37.5526 31.3954C36.7439 32.2123 35.6471 32.6713 34.5035 32.6713C33.3599 32.6713 32.2631 32.2123 31.4544 31.3954C30.6457 30.5784 30.1914 29.4704 30.1914 28.3151C30.1914 27.1598 30.6457 26.0518 31.4544 25.2348C32.2631 24.4179 33.3599 23.9589 34.5035 23.9589ZM47.4397 28.3151C47.4397 27.1598 47.894 26.0518 48.7027 25.2348C49.5113 24.4179 50.6081 23.9589 51.7518 23.9589C52.8954 23.9589 53.9922 24.4179 54.8008 25.2348C55.6095 26.0518 56.0638 27.1598 56.0638 28.3151C56.0638 29.4704 55.6095 30.5784 54.8008 31.3954C53.9922 32.2123 52.8954 32.6713 51.7518 32.6713C50.6081 32.6713 49.5113 32.2123 48.7027 31.3954C47.894 30.5784 47.4397 29.4704 47.4397 28.3151Z" fill="#D9D9D9"/>
</svg>
