<svg width="23" height="22" viewBox="0 0 23 22" fill="none" xmlns="http://www.w3.org/2000/svg">
<path d="M12.4379 0.794032C12.2127 0.34221 11.7369 0.0546875 11.2143 0.0546875C10.6918 0.0546875 10.2202 0.34221 9.99075 0.794032L7.25893 6.22821L1.15801 7.099C0.648179 7.17293 0.223323 7.51796 0.0661265 7.99032C-0.0910701 8.46268 0.0363864 8.98433 0.401762 9.33346L4.82876 13.5683L3.78361 19.5528C3.69864 20.0457 3.91107 20.5469 4.33168 20.8385C4.75228 21.1301 5.30884 21.1671 5.76769 20.933L11.2186 18.1193L16.6695 20.933C17.1283 21.1671 17.6849 21.1342 18.1055 20.8385C18.5261 20.5427 18.7385 20.0457 18.6536 19.5528L17.6042 13.5683L22.0312 9.33346C22.3965 8.98433 22.5282 8.46268 22.3668 7.99032C22.2054 7.51796 21.7847 7.17293 21.2749 7.099L15.1697 6.22821L12.4379 0.794032Z" fill="#654222"/>
</svg>
