<svg width="24" height="22" viewBox="0 0 24 22" fill="none" xmlns="http://www.w3.org/2000/svg">
<path d="M13.3613 0.794032C13.1361 0.34221 12.6602 0.0546875 12.1377 0.0546875C11.6151 0.0546875 11.1435 0.34221 10.9141 0.794032L8.18227 6.22821L2.08135 7.099C1.57152 7.17293 1.14666 7.51796 0.989466 7.99032C0.83227 8.46268 0.959726 8.98433 1.3251 9.33346L5.7521 13.5683L4.70695 19.5528C4.62198 20.0457 4.83441 20.5469 5.25502 20.8385C5.67562 21.1301 6.23218 21.1671 6.69103 20.933L12.1419 18.1193L17.5928 20.933C18.0517 21.1671 18.6082 21.1342 19.0288 20.8385C19.4494 20.5427 19.6619 20.0457 19.5769 19.5528L18.5275 13.5683L22.9545 9.33346C23.3199 8.98433 23.4516 8.46268 23.2901 7.99032C23.1287 7.51796 22.7081 7.17293 22.1983 7.099L16.0931 6.22821L13.3613 0.794032Z" fill="#D9D9D9"/>
</svg>
