<svg width="60" height="68" viewBox="0 0 60 68" fill="none" xmlns="http://www.w3.org/2000/svg">
<g clip-path="url(#clip0_224_1830)">
<path d="M30 8.5C24.0804 8.5 19.2857 13.2547 19.2857 19.125V25.5H51.4286C56.1562 25.5 60 29.3117 60 34V59.5C60 64.1883 56.1562 68 51.4286 68H8.57143C3.84375 68 0 64.1883 0 59.5V34C0 29.3117 3.84375 25.5 8.57143 25.5H10.7143V19.125C10.7143 8.56641 19.3527 0 30 0C37.7009 0 44.3304 4.47578 47.4241 10.9305C48.442 13.0555 47.5312 15.5922 45.3884 16.5883C43.2455 17.5844 40.6875 16.6945 39.683 14.5695C37.9554 10.9703 34.2723 8.5 30 8.5ZM34.2857 51C36.6562 51 38.5714 49.1008 38.5714 46.75C38.5714 44.3992 36.6562 42.5 34.2857 42.5H25.7143C23.3438 42.5 21.4286 44.3992 21.4286 46.75C21.4286 49.1008 23.3438 51 25.7143 51H34.2857Z" fill="#D9D9D9"/>
</g>
<defs>
<clipPath id="clip0_224_1830">
<rect width="60" height="68" fill="white"/>
</clipPath>
</defs>
</svg>
