<svg width="120" height="78" viewBox="0 0 120 78" fill="none" xmlns="http://www.w3.org/2000/svg">
<path d="M9 0C4.03125 0 0 3.99366 0 8.91608C0 11.7209 1.33125 14.3586 3.6 16.049L44.4 46.3636C46.5375 47.9425 49.4625 47.9425 51.6 46.3636L62.3625 38.3763C66.8438 27.2684 77.3063 19.1882 89.7937 17.9808L92.4 16.049C94.6687 14.3586 96 11.7209 96 8.91608C96 3.99366 91.9688 0 87 0H9ZM55.2 51.1189C50.925 54.2952 45.075 54.2952 40.8 51.1189L0 20.8042V59.4406C0 65.9976 5.38125 71.3287 12 71.3287H67.5375C62.8313 65.6818 60 58.4189 60 50.5245C60 49.4843 60.0562 48.4626 60.15 47.441L55.2 51.1189ZM120 50.5245C120 43.4304 117.155 36.6269 112.092 31.6106C107.028 26.5943 100.161 23.7762 93 23.7762C85.8392 23.7762 78.9716 26.5943 73.9081 31.6106C68.8446 36.6269 66 43.4304 66 50.5245C66 57.6186 68.8446 64.4221 73.9081 69.4383C78.9716 74.4546 85.8392 77.2727 93 77.2727C100.161 77.2727 107.028 74.4546 112.092 69.4383C117.155 64.4221 120 57.6186 120 50.5245ZM105.619 42.4814C106.781 43.6331 106.781 45.5278 105.619 46.6794L92.1187 60.0535C90.9562 61.2052 89.0438 61.2052 87.8813 60.0535L80.3813 52.6235C79.2188 51.4718 79.2188 49.5771 80.3813 48.4255C81.5438 47.2738 83.4562 47.2738 84.6187 48.4255L90 53.7566L101.381 42.4814C102.544 41.3298 104.456 41.3298 105.619 42.4814Z" fill="#654222"/>
</svg>
