<svg width="19" height="18" viewBox="0 0 19 18" fill="none" xmlns="http://www.w3.org/2000/svg">
<path d="M7.25392 12.5041C7.31774 12.6024 7.40188 12.6825 7.49935 12.7378C7.59682 12.793 7.70482 12.8219 7.8144 12.8219C7.92398 12.8219 8.03199 12.793 8.12946 12.7378C8.22693 12.6825 8.31106 12.6024 8.37489 12.5041L12.9411 5.51679C13.0235 5.38997 12.9411 5.21289 12.8002 5.21289H11.7833C11.5622 5.21289 11.3518 5.33014 11.2217 5.53115L7.81549 10.7477L6.27172 8.3835C6.14163 8.18489 5.93348 8.06524 5.71015 8.06524H4.69326C4.55233 8.06524 4.46994 8.24232 4.55233 8.36914L7.25392 12.5041Z" fill="#654222"/>
<path d="M17.337 0.140137H1.00314C0.610326 0.140137 0.292969 0.457494 0.292969 0.850307V17.1842C0.292969 17.577 0.610326 17.8944 1.00314 17.8944H17.337C17.7299 17.8944 18.0472 17.577 18.0472 17.1842V0.850307C18.0472 0.457494 17.7299 0.140137 17.337 0.140137ZM16.4493 16.2965H1.89085V1.73802H16.4493V16.2965Z" fill="#654222"/>
</svg>
