<svg width="20" height="21" viewBox="0 0 20 21" fill="none" xmlns="http://www.w3.org/2000/svg">
<path d="M17.9885 1.73242H2.01576C1.63163 1.73242 1.32129 2.04276 1.32129 2.42689V18.3997C1.32129 18.7838 1.63163 19.0941 2.01576 19.0941H17.9885C18.3727 19.0941 18.683 18.7838 18.683 18.3997V2.42689C18.683 2.04276 18.3727 1.73242 17.9885 1.73242ZM13.9845 7.23826L9.41402 13.5753C9.35014 13.6645 9.26593 13.7371 9.16837 13.7872C9.07081 13.8373 8.96271 13.8635 8.85302 13.8635C8.74334 13.8635 8.63524 13.8373 8.53768 13.7872C8.44011 13.7371 8.3559 13.6645 8.29202 13.5753L5.58576 9.82516C5.50329 9.71014 5.58576 9.54954 5.72683 9.54954H6.74466C6.96602 9.54954 7.17653 9.65588 7.30674 9.83818L8.85194 11.9824L12.2635 7.25128C12.3937 7.07115 12.6021 6.96264 12.8256 6.96264H13.8434C13.9845 6.96264 14.067 7.12324 13.9845 7.23826Z" fill="#654222"/>
</svg>
