<svg width="19" height="19" viewBox="0 0 19 19" fill="none" xmlns="http://www.w3.org/2000/svg">
<path d="M9.06559 1.6998C11.0191 1.6998 12.8926 2.47583 14.274 3.85719C15.6553 5.23854 16.4314 7.11206 16.4314 9.06559C16.4314 11.0191 15.6553 12.8926 14.274 14.274C12.8926 15.6553 11.0191 16.4314 9.06559 16.4314C7.11206 16.4314 5.23854 15.6553 3.85719 14.274C2.47583 12.8926 1.6998 11.0191 1.6998 9.06559C1.6998 7.11206 2.47583 5.23854 3.85719 3.85719C5.23854 2.47583 7.11206 1.6998 9.06559 1.6998ZM9.06559 18.1312C11.4699 18.1312 13.7758 17.1761 15.4759 15.4759C17.1761 13.7758 18.1312 11.4699 18.1312 9.06559C18.1312 6.66125 17.1761 4.35538 15.4759 2.65525C13.7758 0.955122 11.4699 0 9.06559 0C6.66125 0 4.35538 0.955122 2.65525 2.65525C0.955122 4.35538 0 6.66125 0 9.06559C0 11.4699 0.955122 13.7758 2.65525 15.4759C4.35538 17.1761 6.66125 18.1312 9.06559 18.1312ZM13.0672 7.4012C13.4001 7.06833 13.4001 6.53006 13.0672 6.20072C12.7343 5.87139 12.1961 5.86784 11.8667 6.20072L7.93593 10.1315L6.27155 8.46712C5.93867 8.13424 5.4004 8.13424 5.07106 8.46712C4.74173 8.8 4.73819 9.33826 5.07106 9.6676L7.33746 11.934C7.67034 12.2669 8.20861 12.2669 8.53794 11.934L13.0672 7.4012Z" fill="#654222"/>
</svg>
