<svg width="381" height="350" viewBox="0 0 381 350" fill="none" xmlns="http://www.w3.org/2000/svg">
<path d="M0 292.08H8.21174V316.787H35.1061V292.08H43.4254V349.06H35.1061V324.138H8.21174V349.06H0V292.08Z" fill="#654222" fill-opacity="0.5"/>
<path d="M74.6574 349.743C60.5289 349.743 50.2373 338.662 50.2373 320.518C50.2373 302.373 60.5289 291.292 74.6574 291.292C88.7858 291.292 98.9698 302.445 98.9698 320.374C98.9698 338.304 88.6065 349.743 74.6574 349.743ZM74.6574 299.217C65.2981 299.217 58.3773 306.676 58.3773 320.518C58.3773 334.359 65.2981 341.89 74.6574 341.89C84.0166 341.89 90.8298 334.431 90.8298 320.589C90.8298 306.748 83.909 299.217 74.6574 299.217Z" fill="#654222" fill-opacity="0.5"/>
<path d="M100.799 292.08H142.682V299.538H125.9V349.06H117.724V299.538H100.799V292.08Z" fill="#654222" fill-opacity="0.5"/>
<path d="M148.85 292.08H182.736V299.538H157.061V316.787H180.944V324.173H157.061V341.529H183.023V349.06H148.85V292.08Z" fill="#654222" fill-opacity="0.5"/>
<path d="M190.447 292.08H198.659V341.493H223.043V349.06H190.447V292.08Z" fill="#654222" fill-opacity="0.5"/>
<path d="M230.889 349.068V292.088H248.818C264.74 292.088 274.278 302.846 274.278 320.452C274.278 338.059 264.74 349.14 248.316 349.14L230.889 349.068ZM247.958 341.538C260.221 341.538 266.246 333.971 266.246 320.56C266.246 307.149 260.221 299.726 248.316 299.726H238.993V341.43L247.958 341.538Z" fill="#654222" fill-opacity="0.5"/>
<path d="M303.934 349.753C289.841 349.753 279.55 338.672 279.55 320.527C279.55 302.383 289.841 291.302 303.934 291.302C318.027 291.302 328.354 302.454 328.354 320.384C328.354 338.314 317.883 349.753 303.934 349.753ZM303.934 299.227C294.611 299.227 287.69 306.686 287.69 320.527C287.69 334.369 294.611 341.899 303.934 341.899C313.257 341.899 320.142 334.441 320.142 320.599C320.142 306.758 313.186 299.227 303.934 299.227Z" fill="#654222" fill-opacity="0.5"/>
<path d="M357.686 299.226C348.577 299.226 341.549 306.792 341.549 320.526C341.549 334.26 348.506 341.827 358.044 341.827C359.99 341.897 361.929 341.557 363.734 340.829C365.54 340.101 367.172 339.001 368.525 337.601C369.878 336.201 370.921 334.531 371.586 332.702C372.252 330.872 372.525 328.923 372.388 326.981H359.084V319.809H380.349V326.264C380.349 340.607 370.954 349.751 357.829 349.751C343.199 349.751 333.266 338.527 333.266 320.526C333.266 302.525 343.485 291.301 357.471 291.301C362.869 291.151 368.137 292.978 372.283 296.438C376.43 299.898 379.171 304.753 379.99 310.091H371.563C370.854 306.96 369.086 304.169 366.558 302.189C364.03 300.21 360.896 299.163 357.686 299.226Z" fill="#654222" fill-opacity="0.5"/>
<path d="M230.882 247.978H266.227C266.227 247.978 274.379 234.413 249.924 234.413C245.937 226.902 244.065 218.449 244.51 209.958C244.065 201.466 245.937 193.013 249.924 185.502C249.924 185.502 271.641 150.158 271.641 128.44V66.2137C271.641 66.2137 271.641 60.7377 279.793 58.062C287.944 55.3862 301.572 44.4343 301.572 30.8689C301.265 21.5638 299.415 12.3744 296.096 3.67575C296.096 3.67575 277.428 14.5654 260.813 11.8275C244.199 9.08948 217.255 3.67575 201.014 25.4551C184.772 47.2345 187.448 66.2137 209.165 74.3654C230.882 82.5171 228.207 14.5654 211.903 1" stroke="#654222" stroke-width="2" stroke-linecap="round" stroke-linejoin="round"/>
<path d="M218.687 86.3125C209.339 103.563 195.179 117.724 177.928 127.071C150.735 140.636 96.4109 214.189 142.583 249.347H210.535C210.535 249.347 213.273 233.043 183.342 233.043C183.342 233.043 218.687 219.478 218.687 205.85C218.793 201.661 218 197.497 216.361 193.64C214.722 189.782 212.275 186.322 209.184 183.491C206.094 180.66 202.433 178.525 198.447 177.229C194.461 175.934 190.244 175.508 186.08 175.981C164.363 178.719 145.321 211.326 145.321 211.326C145.321 211.326 126.28 243.933 104.438 243.933C82.5965 243.933 71.9558 214.002 85.7701 184.133" stroke="#654222" stroke-width="2" stroke-linecap="round" stroke-linejoin="round"/>
<path d="M263.737 158.56C263.737 158.56 278.672 192.286 297.34 192.286C316.008 192.286 310.968 208.59 310.968 208.59H281.161L252.412 181.272" stroke="#654222" stroke-width="2" stroke-linecap="round" stroke-linejoin="round"/>
<path d="M295.6 245.49C303.229 245.49 309.414 239.305 309.414 231.676C309.414 224.046 303.229 217.861 295.6 217.861C287.97 217.861 281.785 224.046 281.785 231.676C281.785 239.305 287.97 245.49 295.6 245.49Z" stroke="#654222" stroke-width="2" stroke-linecap="round" stroke-linejoin="round"/>
<path d="M241.771 30.6205C242.097 29.1779 242.712 27.8164 243.579 26.6179C244.445 25.4194 245.545 24.4088 246.813 23.647C248.081 22.8853 249.489 22.3882 250.954 22.1857C252.419 21.9832 253.91 22.0795 255.337 22.4688" stroke="#654222" stroke-width="2" stroke-linecap="round" stroke-linejoin="round"/>
</svg>
