<svg width="20" height="20" viewBox="0 0 20 20" fill="none" xmlns="http://www.w3.org/2000/svg">
<path d="M14.5718 1.06212C15.1597 0.388007 16.0102 0 16.9038 0C18.6126 0 20 1.38742 20 3.09622C20 3.98981 19.612 4.84421 18.9379 5.4321L10.8172 12.5024L10.4135 12.0988L7.90515 9.59044L7.49755 9.18283L14.5718 1.06212ZM6.60788 10.0686L7.01548 10.4762L9.52381 12.9845L9.93141 13.3921L9.17891 16.6608C9.02606 17.331 8.51656 17.864 7.8542 18.0482L0.889673 20L4.62865 16.261C4.73055 16.2885 4.84029 16.3041 4.95395 16.3041C5.64766 16.3041 6.20811 15.7437 6.20811 15.05C6.20811 14.3563 5.64766 13.7958 4.95395 13.7958C4.26024 13.7958 3.69978 14.3563 3.69978 15.05C3.69978 15.1636 3.71546 15.2694 3.7429 15.3753L0 19.1103L1.95179 12.1497C2.136 11.4874 2.66902 10.9779 3.33921 10.825L6.60788 10.0725V10.0686Z" fill="white"/>
</svg>
