<svg width="20" height="20" viewBox="0 0 20 20" fill="none" xmlns="http://www.w3.org/2000/svg">
<path d="M14.6756 0.769325C14.617 0.456825 14.406 0.195106 14.1131 0.0740126C13.8201 -0.0470811 13.4842 -0.0119249 13.2225 0.167763L9.99979 2.38651L6.77714 0.163856C6.51542 -0.0158312 6.17948 -0.0509874 5.88651 0.0701063C5.59354 0.1912 5.38261 0.452919 5.32401 0.765419L4.61698 4.61308L0.769325 5.32401C0.456825 5.38261 0.195106 5.59354 0.0740126 5.88651C-0.0470811 6.17948 -0.0119249 6.51542 0.167763 6.77714L2.38651 9.99979L0.163856 13.2225C-0.0158312 13.4842 -0.0509874 13.8201 0.0701063 14.1131C0.1912 14.406 0.452919 14.6209 0.765419 14.6756L4.61308 15.3826L5.32011 19.2303C5.3787 19.5428 5.58964 19.8045 5.88261 19.9256C6.17558 20.0467 6.51151 20.0115 6.77323 19.8318L9.99979 17.6131L13.2225 19.8357C13.4842 20.0154 13.8201 20.0506 14.1131 19.9295C14.406 19.8084 14.617 19.5467 14.6756 19.2342L15.3826 15.3865L19.2303 14.6795C19.5428 14.6209 19.8045 14.4099 19.9256 14.117C20.0467 13.824 20.0115 13.4881 19.8318 13.2264L17.6131 9.99979L19.8357 6.77714C20.0154 6.51542 20.0506 6.17948 19.9295 5.88651C19.8084 5.59354 19.5467 5.38261 19.2342 5.32401L15.3865 4.61698L14.6756 0.769325ZM10.531 4.29667L13.0935 2.53104L13.656 5.58964C13.7264 5.97245 14.0271 6.27323 14.4099 6.34354L17.4685 6.90604L15.7029 9.46854C15.4803 9.78886 15.4803 10.2107 15.7029 10.531L17.4685 13.0935L14.4099 13.656C14.0271 13.7264 13.7264 14.0271 13.656 14.4099L13.0935 17.4685L10.531 15.7029C10.2107 15.4803 9.78886 15.4803 9.46854 15.7029L6.90604 17.4685L6.34354 14.4099C6.27323 14.0271 5.97245 13.7264 5.58964 13.656L2.53104 13.0935L4.29667 10.531C4.51933 10.2107 4.51933 9.78886 4.29667 9.46854L2.53104 6.90604L5.58964 6.34354C5.97245 6.27323 6.27323 5.97245 6.34354 5.58964L6.90604 2.53104L9.46854 4.29667C9.78886 4.51933 10.2107 4.51933 10.531 4.29667ZM9.99979 14.3748C11.1601 14.3748 12.2729 13.9139 13.0934 13.0934C13.9139 12.2729 14.3748 11.1601 14.3748 9.99979C14.3748 8.83947 13.9139 7.72667 13.0934 6.9062C12.2729 6.08573 11.1601 5.62479 9.99979 5.62479C8.83947 5.62479 7.72667 6.08573 6.9062 6.9062C6.08573 7.72667 5.62479 8.83947 5.62479 9.99979C5.62479 11.1601 6.08573 12.2729 6.9062 13.0934C7.72667 13.9139 8.83947 14.3748 9.99979 14.3748ZM7.49979 9.99979C7.49979 9.33675 7.76319 8.70087 8.23203 8.23203C8.70087 7.76319 9.33675 7.49979 9.99979 7.49979C10.6628 7.49979 11.2987 7.76319 11.7676 8.23203C12.2364 8.70087 12.4998 9.33675 12.4998 9.99979C12.4998 10.6628 12.2364 11.2987 11.7676 11.7676C11.2987 12.2364 10.6628 12.4998 9.99979 12.4998C9.33675 12.4998 8.70087 12.2364 8.23203 11.7676C7.76319 11.2987 7.49979 10.6628 7.49979 9.99979Z" fill="white"/>
</svg>
