<svg width="20" height="21" viewBox="0 0 20 21" fill="none" xmlns="http://www.w3.org/2000/svg">
<path d="M10.5583 0.119599C10.3833 0.0412412 10.1958 0 10 0C9.80417 0 9.61667 0.0412412 9.44167 0.119599L1.59585 3.41477C0.679184 3.79831 -0.00414771 4.69324 1.8952e-05 5.77376C0.0208522 9.86489 1.72085 17.3502 8.9 20.7526C9.59583 21.0825 10.4042 21.0825 11.1 20.7526C18.2792 17.3502 19.9791 9.86489 20 5.77376C20.0041 4.69324 19.3208 3.79831 18.4042 3.41477L10.5583 0.119599ZM6.03751 11.8032C6.23751 11.8527 6.45001 11.8775 6.66667 11.8775C8.1375 11.8775 9.33333 10.6938 9.33333 9.23802V6.59859H11.175C11.6792 6.59859 12.1417 6.87903 12.3667 7.32855L12.6667 7.9183H15.3333C15.7 7.9183 16 8.21524 16 8.57816V9.89788C16 11.7207 14.5083 13.1972 12.6667 13.1972H10.6667V15.2881C10.6667 15.5892 10.4208 15.8366 10.1125 15.8366C10.0375 15.8366 9.9625 15.8201 9.89583 15.7912L5.78334 14.0467C5.50834 13.9313 5.33334 13.6632 5.33334 13.3704C5.33334 13.2549 5.35834 13.1436 5.41251 13.0405L6.03751 11.8032ZM6.00001 6.59859H7.66667H8V7.9183V9.23802C8 9.96799 7.40417 10.5577 6.66667 10.5577C5.92917 10.5577 5.33334 9.96799 5.33334 9.23802V7.25844C5.33334 6.89552 5.63334 6.59859 6.00001 6.59859ZM11.3333 8.57816C11.3333 8.40316 11.2631 8.23532 11.1381 8.11157C11.013 7.98782 10.8435 7.9183 10.6667 7.9183C10.4899 7.9183 10.3203 7.98782 10.1953 8.11157C10.0702 8.23532 10 8.40316 10 8.57816C10 8.75317 10.0702 8.921 10.1953 9.04475C10.3203 9.1685 10.4899 9.23802 10.6667 9.23802C10.8435 9.23802 11.013 9.1685 11.1381 9.04475C11.2631 8.921 11.3333 8.75317 11.3333 8.57816Z" fill="white"/>
</svg>
