<svg width="20" height="22" viewBox="0 0 20 22" fill="none" xmlns="http://www.w3.org/2000/svg">
<path d="M4.28571 5.5C4.28571 6.95869 4.88775 8.35764 5.95939 9.38909C7.03103 10.4205 8.48448 11 10 11C11.5155 11 12.969 10.4205 14.0406 9.38909C15.1122 8.35764 15.7143 6.95869 15.7143 5.5C15.7143 4.04131 15.1122 2.64236 14.0406 1.61091C12.969 0.579463 11.5155 0 10 0C8.48448 0 7.03103 0.579463 5.95939 1.61091C4.88775 2.64236 4.28571 4.04131 4.28571 5.5ZM8.50446 14.1023L9.33482 15.4344L7.84821 20.7582L6.24107 14.4461C6.15179 14.098 5.80357 13.8703 5.44196 13.9605C2.31696 14.7125 0 17.4367 0 20.6809C0 21.4113 0.616071 22 1.37054 22H7.25446C7.25446 22 7.25446 22 7.25893 22H7.5H12.5H12.7455C12.7455 22 12.7455 22 12.75 22H18.6295C19.3884 22 20 21.407 20 20.6809C20 17.4367 17.683 14.7125 14.558 13.9605C14.1964 13.8746 13.8482 14.1023 13.7589 14.4461L12.1518 20.7582L10.6652 15.4344L11.4955 14.1023C11.7813 13.6426 11.4375 13.0625 10.8839 13.0625H10H9.12054C8.56696 13.0625 8.22321 13.6469 8.50893 14.1023H8.50446Z" fill="white"/>
</svg>
