<svg width="14" height="14" viewBox="0 0 14 14" fill="none" xmlns="http://www.w3.org/2000/svg">
<path d="M13.1802 3.04698C13.7074 2.53997 13.7238 1.70437 13.2168 1.17711C12.7098 0.649837 11.8742 0.633465 11.3469 1.14047L7.05728 5.26524L2.93251 0.975601C2.42551 0.448333 1.58991 0.43196 1.06264 0.938964C0.535371 1.44597 0.518999 2.28157 1.026 2.80883L5.15078 7.09848L0.861133 11.2232C0.333865 11.7303 0.317493 12.5659 0.824497 13.0931C1.3315 13.6204 2.1671 13.6368 2.69437 13.1298L6.98401 9.00498L11.1088 13.2946C11.6158 13.8219 12.4514 13.8383 12.9787 13.3313C13.5059 12.8243 13.5223 11.9887 13.0153 11.4614L8.89052 7.17175L13.1802 3.04698Z" fill="#346FFF"/>
</svg>
